<?xml version="1.0" standalone="no"?>
<!DOCTYPE svg PUBLIC "-//W3C//DTD SVG 20010904//EN"
 "http://www.w3.org/TR/2001/REC-SVG-20010904/DTD/svg10.dtd">
<svg version="1.0" xmlns="http://www.w3.org/2000/svg"
 width="460.000000pt" height="460.000000pt" viewBox="0 0 460.000000 460.000000"
 preserveAspectRatio="xMidYMid meet">

<g transform="translate(0.000000,460.000000) scale(0.100000,-0.100000)"
fill="#000000" stroke="none">
<path d="M7 4593 c-4 -3 -7 -20 -7 -37 0 -32 15 -26 22 8 1 11 9 21 16 24 8 2
10 -2 5 -14 -4 -12 -3 -15 5 -10 7 4 12 2 12 -5 0 -13 -38 -49 -52 -49 -4 0
-8 -5 -8 -12 0 -9 3 -9 12 0 19 19 28 14 28 -14 0 -21 -4 -24 -20 -19 -18 6
-19 1 -19 -124 1 -72 5 -131 10 -131 5 0 4 -11 -1 -26 -6 -14 -10 -44 -10 -67
1 -39 2 -41 15 -23 8 11 16 18 19 15 6 -8 16 -186 9 -192 -3 -4 -14 -2 -24 3
-17 9 -18 4 -16 -85 1 -52 5 -95 9 -95 4 0 8 -9 8 -20 0 -11 -4 -20 -10 -20
-25 0 -2 -88 37 -140 39 -52 74 -112 61 -104 -7 4 -29 19 -48 34 -57 43 -60
44 -60 13 0 -25 8 -31 69 -59 63 -29 69 -34 75 -69 4 -20 5 -39 3 -42 -3 -2
-30 12 -61 32 -81 52 -86 53 -86 16 0 -26 6 -33 36 -46 45 -18 134 -76 134
-86 0 -4 3 -15 7 -25 6 -16 4 -16 -23 -1 -45 25 -125 57 -141 57 -31 0 -5 -24
43 -39 58 -20 144 -76 144 -96 0 -10 -21 -3 -72 23 -114 58 -128 64 -128 49 0
-8 37 -30 83 -51 46 -21 94 -43 108 -49 27 -14 48 -51 56 -100 l5 -32 -82 3
c-51 3 -86 0 -93 -7 -8 -8 8 -11 60 -11 92 0 124 -11 118 -42 -3 -12 0 -25 6
-28 5 -4 -16 -8 -48 -9 -80 -2 -213 -39 -213 -58 0 -10 6 -13 17 -8 10 3 32 9
48 12 17 3 47 14 67 24 39 20 108 26 108 9 0 -5 6 -7 14 -4 21 8 56 -14 56
-35 0 -21 -63 -51 -108 -51 -53 -1 -202 -60 -202 -80 0 -16 19 -12 96 25 40
19 83 35 94 35 19 0 16 -6 -20 -42 -55 -57 -120 -153 -120 -178 0 -11 13 -47
30 -80 32 -63 36 -80 20 -80 -5 0 -10 6 -10 14 0 24 -29 46 -61 46 l-29 0 0
-318 0 -318 53 -14 52 -13 -35 -14 c-19 -7 -43 -16 -53 -19 -18 -7 -24 -34 -7
-34 13 0 13 -37 0 -45 -6 -4 -10 -295 -10 -836 l1 -829 2299 0 2300 0 0 2239
c0 1465 -3 2249 -10 2266 -5 14 -6 24 -2 21 5 -3 9 13 10 35 l2 40 -110 -2
-110 -1 6 -24 c8 -31 -3 -30 -29 2 -20 26 -22 26 -111 20 -50 -4 -95 -11 -99
-15 -5 -5 15 -14 47 -21 51 -10 56 -14 57 -38 1 -17 3 -21 6 -9 6 22 19 22 27
0 11 -27 -8 -35 -73 -31 -57 3 -62 1 -59 -17 2 -11 -4 -26 -12 -33 -13 -11
-11 -13 13 -9 22 3 27 1 25 -12 -2 -11 -16 -17 -40 -19 -20 -2 -42 -10 -48
-18 -28 -33 -33 -14 -26 106 l7 120 -25 0 c-14 0 -26 -3 -26 -7 0 -5 -5 -71
-11 -148 -6 -77 -10 -160 -10 -185 1 -71 -14 -83 -38 -30 -24 52 -26 71 -8 89
10 11 8 13 -10 8 -22 -5 -33 9 -33 41 1 12 5 10 16 -8 8 -14 13 -17 10 -7 -3
10 -6 23 -6 28 0 5 -7 9 -15 9 -8 0 -29 31 -49 73 -49 101 -45 59 5 -53 22
-50 39 -94 36 -96 -2 -3 -23 19 -46 48 -23 29 -60 63 -82 76 -44 26 -44 27
-24 62 19 33 19 46 0 30 -8 -7 -15 -18 -15 -24 -1 -28 -17 -38 -40 -26 -18 10
-21 9 -18 -2 3 -7 -9 -32 -26 -56 -31 -45 -51 -41 -21 4 9 14 14 31 12 37 -3
7 -12 -6 -22 -28 l-17 -39 -42 45 c-61 68 -135 129 -154 128 -14 0 -14 -2 -2
-6 8 -3 44 -34 80 -69 36 -34 75 -71 88 -81 22 -17 22 -19 8 -61 -18 -51 -105
-212 -114 -212 -4 0 -20 24 -36 53 -17 28 -42 70 -58 91 -29 40 -35 77 -19
118 5 13 11 48 15 78 l6 55 -14 -43 c-8 -24 -17 -66 -21 -93 -4 -27 -11 -49
-15 -49 -5 0 -18 16 -30 35 -23 37 -56 46 -63 18 -3 -10 -8 -35 -12 -55 -9
-57 -52 -165 -58 -148 -3 8 -25 75 -48 148 -36 108 -47 132 -62 132 -18 0 -19
-6 -12 -117 8 -131 4 -135 -52 -47 -28 44 -38 50 -61 36 -9 -7 -10 -41 -1
-166 6 -87 9 -160 6 -163 -3 -2 -15 0 -26 7 -23 12 -26 29 -12 78 8 25 7 32
-2 29 -7 -2 -13 -20 -15 -40 -4 -42 -4 -42 -40 -21 l-27 16 28 -25 c15 -14 28
-36 28 -49 1 -17 3 -18 6 -5 2 9 8 17 11 17 16 -1 52 -40 53 -57 0 -10 7 -34
14 -53 l13 -35 1 43 1 43 45 -37 c47 -38 52 -54 34 -101 -8 -20 -13 -24 -17
-13 -9 27 -27 30 -34 7 -6 -21 -6 -20 -7 4 -1 26 -31 64 -31 40 0 -6 -5 -11
-10 -11 -6 0 -10 8 -8 18 2 12 -4 17 -23 18 -14 1 -32 4 -40 8 -8 4 -4 -1 9
-10 19 -14 22 -26 22 -78 l-1 -61 -30 35 c-27 32 -29 39 -25 90 3 30 8 66 11
80 4 24 4 23 -7 -2 -16 -38 -38 -36 -38 2 0 18 -6 33 -15 36 -8 4 -15 11 -15
17 0 6 -8 19 -17 29 -14 16 -15 22 -4 40 16 25 5 38 -12 14 -19 -25 -29 -9
-67 107 -21 65 -37 97 -47 97 -11 0 -14 -11 -12 -44 2 -30 -2 -49 -14 -60 -9
-10 -17 -28 -17 -40 0 -13 -2 -39 -5 -57 -5 -30 -4 -31 4 -9 6 14 15 45 21 69
6 24 15 40 19 35 9 -10 41 -167 41 -200 0 -21 -2 -21 -42 -9 -38 10 -43 16
-46 44 -2 17 -7 31 -13 31 -5 0 -9 6 -9 13 -1 6 -9 30 -20 52 -11 22 -19 49
-20 61 0 24 -25 62 -35 53 -3 -4 1 -24 10 -45 9 -22 25 -64 35 -94 10 -30 22
-64 26 -75 5 -11 -6 -4 -25 18 -27 31 -31 40 -21 52 8 10 9 15 2 15 -6 0 -14
-5 -17 -11 -5 -6 -13 -2 -22 11 -12 16 -14 37 -10 79 5 50 4 54 -9 37 -8 -12
-14 -43 -14 -75 -1 -31 -7 -89 -14 -129 -11 -63 -10 -76 1 -88 8 -8 19 -14 24
-14 5 0 9 -7 9 -15 0 -9 6 -12 15 -9 24 10 28 -22 7 -68 -10 -24 -22 -55 -25
-70 -4 -16 -11 -28 -15 -28 -4 0 -33 29 -65 65 -62 70 -65 79 -35 155 6 14 12
43 14 65 3 40 3 40 -17 -15 -11 -30 -23 -65 -26 -78 -9 -39 -19 -33 -43 26
-28 71 -47 102 -62 102 -6 0 -4 -8 5 -18 14 -15 47 -93 47 -110 0 -4 -25 18
-56 48 -53 53 -56 54 -70 36 -8 -11 -14 -25 -14 -30 0 -6 5 -3 11 6 8 15 19 7
79 -55 38 -40 70 -80 70 -91 0 -10 -11 -50 -25 -88 -25 -69 -33 -107 -16 -78
5 8 19 46 31 83 l22 69 18 -29 c10 -16 21 -40 25 -54 4 -13 22 -63 41 -110 19
-48 34 -94 34 -103 0 -10 7 -24 15 -32 8 -9 15 -22 15 -30 0 -18 -95 -19 -152
-2 -36 11 -45 21 -111 132 -39 67 -73 123 -76 126 -12 11 -41 69 -41 83 0 8
11 40 25 72 14 32 24 60 21 63 -3 3 -8 -3 -12 -12 -3 -9 -10 -14 -15 -11 -4 3
-11 -11 -14 -32 -4 -21 -10 -47 -14 -58 -7 -18 -10 -17 -25 13 -17 32 -16 35
3 68 12 19 21 41 21 47 0 7 -10 -5 -23 -26 l-23 -38 -24 26 c-30 32 -38 25
-13 -12 11 -15 23 -35 26 -43 4 -8 16 -30 27 -48 20 -32 20 -32 -2 -97 -11
-36 -26 -65 -32 -65 -14 0 -61 89 -57 109 2 11 -1 10 -13 -2 -15 -15 -14 -20
12 -59 59 -89 122 -188 122 -193 0 -3 -23 -5 -51 -5 -28 0 -67 -7 -87 -16 -93
-40 -132 -60 -132 -66 0 -14 -33 -8 -52 9 -11 10 -18 12 -18 4 0 -6 7 -14 15
-17 23 -9 18 -20 -15 -34 -17 -7 -30 -17 -30 -23 0 -6 -2 -8 -5 -5 -3 3 -41
-32 -83 -77 -77 -82 -92 -95 -92 -74 0 6 -11 25 -25 43 -15 20 -23 40 -19 50
4 11 2 15 -8 11 -9 -4 -22 9 -37 35 -12 22 -26 40 -32 40 -18 0 -8 15 19 28
15 7 63 27 107 44 132 50 110 58 -27 10 -31 -11 -59 -18 -62 -15 -3 4 -6 1 -6
-5 0 -18 -37 -14 -44 4 -3 9 -6 32 -6 52 1 39 2 39 37 -15 11 -15 11 -14 3 10
-5 15 -17 41 -26 58 -17 34 -32 179 -18 179 5 0 21 -14 36 -32 15 -18 31 -29
35 -25 4 5 3 11 -3 15 -5 4 -23 25 -40 47 -29 37 -32 48 -38 145 -6 96 4 413
20 633 6 77 5 87 -10 87 -11 0 -16 -9 -16 -26 0 -31 -23 -28 -28 4 -2 14 -11
22 -23 22 -18 0 -19 -7 -13 -207 3 -115 9 -287 13 -383 4 -96 6 -177 4 -179
-2 -3 -17 10 -34 28 -16 18 -32 31 -34 29 -3 -3 13 -25 35 -49 33 -37 40 -51
40 -86 0 -24 -2 -43 -6 -43 -3 0 -19 29 -35 64 -17 36 -37 70 -45 77 -19 16
-18 5 6 -41 28 -55 25 -59 -16 -19 -53 50 -26 6 45 -74 55 -61 61 -72 61 -111
0 -54 -21 -66 -50 -29 -11 14 -20 30 -20 34 0 5 -10 9 -23 9 -14 0 -32 12 -45
30 -28 38 -28 48 0 24 l23 -19 -19 22 c-10 13 -23 20 -27 17 -5 -3 -12 3 -16
13 -4 10 -17 32 -30 49 -26 35 -29 57 -9 73 17 14 39 -12 115 -138 56 -93 85
-121 36 -34 -15 26 -35 62 -43 78 -8 17 -27 46 -42 65 -31 42 -38 87 -12 93
15 4 15 5 -2 6 -18 1 -18 2 -1 21 10 12 13 20 6 20 -6 0 -19 -9 -28 -20 -23
-27 -29 -25 -50 10 -9 17 -26 33 -38 36 -11 3 -35 20 -52 37 -18 17 -33 26
-33 21 0 -6 29 -39 65 -73 36 -35 65 -66 65 -69 0 -4 -7 -15 -15 -26 -13 -18
-15 -17 -39 10 -15 17 -26 23 -26 15 0 -11 -3 -11 -17 0 -16 13 -17 12 -4 -3
7 -10 17 -16 21 -13 4 3 14 -3 21 -12 12 -14 12 -16 0 -9 -10 7 -12 3 -7 -15
6 -21 5 -22 -6 -8 -52 63 -70 81 -74 76 -3 -3 11 -23 30 -45 20 -22 36 -45 36
-51 0 -17 -39 -53 -50 -46 -6 4 -10 1 -10 -5 0 -8 -6 -8 -20 0 -18 10 -26 6
-52 -22 -22 -23 -33 -29 -36 -19 -2 7 2 18 9 23 10 7 7 7 -8 3 -19 -5 -22 -3
-16 12 3 10 22 33 42 50 20 18 31 33 26 33 -6 0 -16 -5 -23 -12 -6 -6 -15 -8
-19 -4 -4 4 -3 10 3 14 6 4 19 21 29 39 19 32 59 58 76 48 16 -11 10 3 -15 29
-24 27 -43 35 -30 14 4 -7 3 -8 -4 -4 -9 5 -7 15 5 34 10 15 21 30 26 33 5 4
4 10 -3 14 -6 4 -20 -1 -30 -10 -17 -15 -19 -15 -38 6 l-21 21 6 -23 c3 -13
10 -29 15 -35 10 -13 -50 -93 -70 -93 -7 -1 -10 -6 -7 -12 8 -12 -34 -61 -46
-53 -5 3 -7 -1 -4 -8 5 -14 -50 -86 -59 -78 -7 7 23 110 32 110 4 0 8 14 8 31
1 17 5 34 10 38 5 3 9 15 10 26 0 11 4 31 8 45 3 14 -3 5 -15 -20 -11 -25 -25
-53 -30 -62 -5 -10 -9 -24 -9 -33 0 -22 -31 -95 -39 -91 -3 2 -6 -10 -6 -27 0
-18 -5 -31 -11 -30 -6 1 -11 -14 -12 -35 -1 -21 -10 -44 -22 -56 -20 -20 -20
-20 -40 -1 -19 20 -19 22 -2 57 18 40 29 47 38 23 4 -8 10 -15 16 -15 5 0 2
10 -6 22 -21 30 -20 44 2 27 15 -13 16 -12 3 4 -13 16 -11 25 13 75 15 31 37
77 48 102 11 25 24 52 29 60 5 8 21 39 35 68 25 54 26 54 47 35 l21 -18 -17
28 c-14 21 -15 32 -7 47 6 11 16 20 21 20 6 0 9 7 5 15 -3 8 -2 15 3 15 5 0
14 -7 21 -15 7 -8 9 -15 4 -15 -4 0 4 -12 18 -27 14 -16 34 -43 44 -60 10 -18
22 -33 27 -33 5 0 4 7 -3 15 -23 28 -5 35 23 9 42 -38 44 -22 2 20 -19 20 -35
31 -35 25 0 -20 -27 10 -34 37 -4 14 -16 39 -28 55 l-21 29 61 100 c34 56 64
111 68 123 5 20 -20 -16 -105 -150 l-33 -52 -41 52 c-52 65 -60 46 -12 -29 41
-64 41 -97 0 -70 -36 24 -44 19 -12 -7 26 -20 27 -24 13 -42 -9 -12 -15 -15
-16 -7 0 7 -11 23 -25 36 -25 23 -35 53 -13 40 7 -5 8 -3 4 5 -5 7 -10 10 -13
7 -3 -3 -14 4 -26 14 -11 11 -18 23 -14 26 4 4 1 14 -6 22 -10 13 -9 15 8 8
16 -6 17 -5 8 5 -10 10 -9 16 4 31 20 23 9 36 -18 20 -17 -11 -25 -6 -71 43
-28 30 -55 55 -61 55 -5 0 -40 27 -79 60 l-69 60 -78 0 c-48 0 -82 -5 -90 -12
-11 -10 -14 -10 -18 0 -6 15 -37 16 -65 1 -14 -8 -23 -8 -31 0 -12 12 -89 15
-100 4z m155 -33 c-5 -33 -26 -40 -36 -13 -5 11 -1 22 10 30 26 19 31 16 26
-17z m186 -4 c2 -16 -1 -33 -7 -39 -16 -16 -13 -78 5 -98 10 -11 12 -19 5 -24
-6 -3 -15 5 -21 19 -5 14 -13 26 -18 26 -29 0 -35 124 -8 142 21 15 41 3 44
-26z m4072 19 c0 -8 -4 -15 -10 -15 -5 0 -10 7 -10 15 0 8 5 15 10 15 6 0 10
-7 10 -15z m-4320 -5 c0 -5 -4 -10 -10 -10 -5 0 -10 5 -10 10 0 6 5 10 10 10
6 0 10 -4 10 -10z m16 -37 c20 -27 17 -49 -11 -67 -23 -15 -37 -45 -15 -31 6
3 10 2 10 -3 0 -6 -7 -13 -16 -16 -10 -4 -13 -2 -8 6 5 8 2 9 -10 5 -16 -6
-17 -3 -12 20 27 110 35 121 62 86z m327 -41 c13 -15 17 -29 13 -49 -4 -15 -8
-41 -10 -58 -6 -48 -18 -85 -26 -85 -7 0 -23 33 -35 78 -4 15 0 31 14 49 12
14 19 29 15 32 -3 3 -14 -5 -24 -19 -16 -21 -20 -22 -35 -10 -17 14 -14 64 6
103 10 17 11 17 37 -2 15 -10 35 -28 45 -39z m3975 40 c2 -7 -2 -10 -12 -6 -9
3 -16 11 -16 16 0 13 23 5 28 -10z m-4208 -7 c-7 -8 -18 -15 -24 -15 -6 0 -2
7 8 15 25 19 32 19 16 0z m4247 -17 c-3 -8 -6 -5 -6 6 -1 11 2 17 5 13 3 -3 4
-12 1 -19z m108 -15 c19 -44 12 -54 -14 -22 -21 25 -26 41 -14 52 10 11 12 9
28 -30z m-4305 -35 c0 -18 -5 -28 -15 -28 -16 0 -20 35 -9 65 9 23 24 0 24
-37z m4060 42 c0 -5 -4 -10 -10 -10 -5 0 -10 5 -10 10 0 6 5 10 10 10 6 0 10
-4 10 -10z m-4106 -38 c-7 -34 -21 -42 -31 -17 -5 14 25 60 34 52 2 -2 0 -18
-3 -35z m297 1 c13 -16 12 -17 -3 -4 -10 7 -18 15 -18 17 0 8 8 3 21 -13z
m3944 7 c3 -5 2 -10 -4 -10 -5 0 -13 5 -16 10 -3 6 -2 10 4 10 5 0 13 -4 16
-10z m89 -15 c8 -22 -3 -45 -20 -38 -8 3 -14 9 -14 14 0 4 8 6 18 2 15 -6 15
-4 -2 15 -16 18 -16 22 -4 22 9 0 18 -7 22 -15z m-3948 -103 c19 -18 34 -37
34 -42 0 -15 -103 -220 -110 -220 -11 0 -27 22 -34 47 -5 15 1 30 22 55 16 18
34 44 41 58 12 25 12 25 -13 -2 -14 -16 -34 -28 -45 -28 -11 0 -23 -5 -27 -11
-12 -20 -34 49 -24 74 5 12 16 57 25 101 l17 78 40 -38 c22 -22 56 -54 74 -72z
m3114 93 c0 -22 -39 -95 -50 -95 -6 0 -10 -6 -10 -12 0 -7 -23 -35 -50 -62
-28 -27 -50 -44 -50 -38 0 6 7 17 15 26 8 8 15 18 15 23 0 4 9 19 20 33 22 28
26 45 8 34 -7 -4 -8 -3 -4 4 4 6 13 9 21 5 8 -3 15 -1 15 5 0 15 52 92 62 92
4 0 8 -7 8 -15z m-3429 -32 c-9 -16 -10 -14 -11 12 0 21 3 26 11 18 8 -8 8
-16 0 -30z m3534 -20 c13 -16 25 -31 25 -36 0 -4 14 -20 32 -36 l32 -28 -23
-13 c-26 -13 -41 -4 -44 27 0 12 -6 19 -12 17 -5 -2 -18 8 -28 23 -9 16 -26
43 -38 61 l-21 32 26 -10 c15 -5 38 -22 51 -37z m488 24 c4 3 7 -1 7 -9 0 -15
-28 -28 -63 -28 -10 0 -15 5 -12 10 3 6 1 10 -4 10 -6 0 -11 -4 -11 -10 0 -5
-10 -10 -22 -10 l-23 1 23 19 c22 18 52 18 52 -1 0 -5 5 -9 11 -9 5 0 7 5 4
10 -10 17 5 33 19 21 7 -6 16 -8 19 -4z m-4061 -72 c-5 -37 -12 -51 -26 -53
-17 -4 -18 1 -12 47 10 73 15 86 32 69 9 -9 11 -27 6 -63z m3523 25 c21 -28
33 -55 29 -61 -4 -7 -3 -9 3 -6 5 3 17 -7 26 -23 17 -28 17 -29 -15 -54 -41
-31 -46 -27 -19 17 11 19 21 38 21 43 0 5 -9 -6 -20 -23 -22 -36 -35 -41 -44
-18 -3 9 3 20 14 27 11 7 20 17 20 22 0 5 -8 2 -18 -7 -26 -24 -31 -22 -48 20
-12 28 -18 33 -26 22 -6 -10 -7 -7 -2 11 7 28 33 80 38 80 3 0 21 -22 41 -50z
m-3570 30 c7 -12 -15 -120 -25 -120 -3 0 -4 -16 -2 -35 3 -27 1 -35 -12 -35
-15 0 -21 13 -16 35 2 6 5 28 7 50 9 89 30 134 48 105z m2908 -57 c44 -120 60
-180 53 -198 -6 -17 -9 -16 -32 6 -60 56 -63 70 -55 237 1 12 3 22 5 22 2 0
15 -30 29 -67z m194 18 c22 -26 30 -45 26 -59 -5 -20 -7 -19 -39 13 -20 21
-34 46 -34 60 0 34 10 31 47 -14z m1033 -14 c-1 -21 -1 -21 -15 -3 -8 10 -12
23 -9 28 9 14 24 -2 24 -25z m87 1 c-3 -7 -5 -2 -5 12 0 14 2 19 5 13 2 -7 2
-19 0 -25z m-4341 -5 c-10 -10 -19 5 -10 18 6 11 8 11 12 0 2 -7 1 -15 -2 -18z
m302 -37 c37 -51 43 -81 10 -44 -54 59 -60 67 -53 77 9 15 8 16 43 -33z m-272
-24 c-12 -12 -18 8 -10 35 l8 28 4 -28 c2 -16 1 -31 -2 -35z m4077 8 c-13 -8
-27 -26 -30 -39 l-6 -24 -23 26 c-27 31 -30 32 -38 11 -3 -8 -2 -13 3 -9 16 9
51 -45 46 -71 -3 -13 -7 -35 -10 -49 -6 -28 11 -35 18 -7 4 13 5 11 6 -5 1
-16 -5 -23 -18 -23 -10 0 -33 -3 -50 -6 l-31 -6 0 76 c0 54 4 76 13 76 8 0 7
3 -3 10 -16 10 -17 9 33 39 21 13 44 20 53 17 9 -3 12 -2 9 4 -4 6 4 14 17 19
34 13 43 -19 11 -39z m228 20 c5 0 9 5 9 10 0 6 7 10 15 10 8 0 15 -7 15 -15
0 -8 5 -15 10 -15 6 0 10 5 10 11 0 6 9 1 20 -12 l19 -24 1 34 0 35 25 -34
c20 -28 25 -30 26 -14 1 17 2 17 6 1 2 -9 9 -15 14 -12 13 8 12 -2 -10 -85
-13 -50 -19 -97 -16 -149 2 -54 -2 -83 -12 -100 -13 -20 -13 -25 -2 -32 8 -5
22 -9 32 -9 18 0 18 -11 13 -216 -3 -118 -8 -219 -10 -223 -3 -4 -10 -95 -15
-202 -6 -107 -15 -210 -21 -229 -6 -19 -13 -98 -17 -175 -3 -77 -9 -147 -14
-155 -7 -13 -8 -12 -9 3 0 32 -18 22 -65 -36 l-20 -25 -33 20 c-29 18 -45 20
-102 15 -53 -4 -71 -2 -81 9 -14 17 -39 18 -39 2 0 -10 -3 -9 -9 1 -6 9 -10 9
-12 2 -2 -6 -20 -12 -39 -14 -28 -2 -36 -7 -38 -25 -4 -29 -22 -29 -22 1 0 13
-5 28 -11 34 -16 16 -8 561 8 571 7 5 16 23 19 42 6 25 4 31 -5 25 -10 -6 -11
-3 -2 13 6 11 11 29 11 40 0 11 6 32 14 47 l14 27 7 -32 c4 -17 9 -29 13 -26
3 3 11 1 19 -5 22 -19 15 1 -12 33 -14 16 -25 37 -25 46 0 13 3 12 15 -4 8
-10 15 -15 15 -11 0 4 -12 23 -27 42 -21 26 -30 31 -40 23 -16 -13 -17 -44 -1
-54 7 -5 9 -1 6 13 -4 16 -2 19 14 15 17 -4 17 -7 5 -26 -17 -25 -32 -76 -36
-116 -1 -13 -3 -12 -11 2 -11 17 -3 75 11 84 14 8 11 24 -3 21 -20 -3 -9 70
12 83 7 4 10 15 7 23 -4 11 -1 14 9 10 7 -3 14 -9 14 -14 0 -4 10 -13 23 -19
20 -10 20 -10 5 3 -10 8 -18 17 -18 21 0 4 -12 18 -27 31 l-28 23 35 -1 c39
-2 72 -33 50 -47 -8 -5 -2 -10 19 -15 37 -8 57 3 23 12 -12 3 -22 9 -22 13 0
5 15 4 32 -1 18 -5 34 -9 35 -9 2 0 3 -6 3 -14 0 -8 4 -16 8 -18 8 -3 54 -54
120 -132 13 -15 21 -34 18 -41 -3 -9 0 -12 10 -8 7 3 14 1 14 -4 0 -5 7 -18
15 -29 14 -17 14 -15 0 14 -14 29 -13 36 7 33 4 0 3 11 -2 25 -6 14 -7 30 -4
36 4 6 2 8 -4 4 -6 -3 -14 -1 -18 5 -4 7 -3 9 4 5 5 -3 12 -1 14 6 2 6 10 -3
17 -20 7 -17 19 -33 26 -36 19 -7 0 39 -30 74 -32 37 -91 131 -106 167 -9 22
-16 28 -22 20 -5 -7 -6 -1 -3 15 5 21 2 28 -14 33 -11 3 -25 15 -31 26 -5 11
-14 17 -20 14 -5 -4 -6 -11 -3 -17 4 -7 2 -8 -5 -4 -6 4 -9 11 -6 16 3 5 -2
16 -11 24 -8 9 -11 16 -5 16 5 0 12 -4 15 -9 3 -5 14 -7 24 -5 12 4 21 -4 29
-26 7 -18 16 -29 21 -26 6 3 15 -1 22 -9 7 -8 9 -15 5 -15 -4 0 9 -18 29 -40
38 -42 50 -73 19 -49 -16 13 -17 12 -4 -3 7 -10 17 -15 22 -12 5 3 9 -2 9 -10
0 -9 3 -16 8 -16 4 0 20 -20 35 -45 38 -60 46 -58 11 3 -15 26 -37 67 -49 92
-41 87 -46 95 -40 75 7 -24 0 -16 -46 50 -20 28 -40 68 -46 90 -6 22 -14 49
-19 60 -7 18 -6 19 12 5 18 -15 18 -14 1 10 -10 14 -20 33 -24 43 -3 9 -9 17
-14 17 -5 0 -9 9 -9 20 0 17 -11 40 -36 78 -1 2 -11 -1 -21 -7 -14 -8 -15 -10
-2 -11 8 0 23 -16 32 -35 20 -41 21 -49 7 -40 -5 3 -10 1 -10 -4 0 -6 -11 -11
-25 -11 -19 0 -25 5 -25 21 0 17 5 20 25 16 16 -3 24 0 22 7 -2 6 -15 10 -29
8 -30 -4 -47 16 -27 29 12 7 11 9 -1 10 -9 0 -7 4 8 11 12 6 22 15 22 20 0 4
7 8 15 8 8 0 15 8 15 18 0 9 4 24 9 31 8 12 13 11 31 -10 l22 -24 -17 28 c-9
16 -15 40 -13 55 3 24 8 18 38 -41 19 -38 36 -64 37 -60 2 5 -10 35 -28 67
-24 46 -28 61 -18 70 9 8 10 8 5 -1 -4 -7 -4 -18 0 -25 5 -8 10 -6 15 8 6 16
8 15 8 -8 1 -38 21 -36 21 2 0 17 5 30 10 30 6 0 10 -9 10 -19 0 -11 6 -21 13
-24 22 -8 37 5 37 32 0 20 2 23 10 11 7 -11 10 -7 10 18 0 40 32 107 38 80 2
-10 8 -18 13 -18z m-1408 -43 c41 -52 48 -67 43 -91 -10 -48 -34 -78 -57 -71
-10 4 -19 2 -19 -3 0 -6 6 -12 13 -15 9 -3 8 -12 -5 -38 l-18 -34 1 50 c1 28
-1 61 -4 75 -10 42 -17 190 -9 190 4 -1 29 -29 55 -63z m-2963 28 c0 -8 -4
-15 -10 -15 -5 0 -10 7 -10 15 0 8 5 15 10 15 6 0 10 -7 10 -15z m3651 -3 c29
-33 30 -41 10 -61 l-21 -21 -16 25 c-10 16 -14 34 -10 50 8 30 16 31 37 7z
m-3342 -11 c11 -11 18 -27 18 -37 -1 -11 7 -20 23 -25 14 -4 19 -7 12 -8 -7
-1 -11 -5 -8 -10 9 -13 -12 -120 -31 -162 -12 -26 -26 -41 -43 -45 -14 -3 -34
-9 -46 -14 -30 -12 -46 2 -39 33 4 15 11 25 15 22 4 -2 5 6 3 20 -6 29 14 95
29 95 7 0 7 4 0 13 -8 9 -7 21 3 41 8 15 12 32 9 37 -11 18 6 48 23 42 11 -4
14 -2 9 5 -11 18 2 14 23 -7z m3042 -40 c11 -20 30 -54 44 -76 29 -49 32 -69
4 -35 -11 14 -39 47 -62 74 -23 28 -42 53 -41 58 1 4 2 15 3 24 2 23 26 2 52
-45z m-112 -12 c20 -52 21 -67 12 -107 -6 -26 -12 -62 -15 -80 -6 -46 -12 -49
-36 -21 -30 36 -33 60 -16 130 8 35 17 81 21 102 3 20 7 37 9 37 2 0 13 -27
25 -61z m-2603 25 c10 -15 30 -40 43 -56 l23 -29 -58 -62 c-53 -56 -63 -62
-101 -63 -32 -1 -43 2 -43 13 0 19 101 223 111 223 3 0 15 -12 25 -26z m2634
-22 c0 -33 -16 -18 -26 23 -7 27 -6 29 9 16 10 -7 17 -25 17 -39z m624 5 c31
-46 32 -52 5 -71 -20 -14 -23 -13 -43 17 -35 52 -37 65 -14 81 12 9 23 14 24
13 2 -1 14 -19 28 -40z m-3704 15 c0 -20 -27 -62 -40 -62 -5 0 -7 12 -6 28 2
15 4 33 5 40 2 20 41 15 41 -6z m3375 -48 c-8 -16 -22 -47 -31 -69 -16 -38
-17 -39 -23 -15 -6 22 -8 23 -14 7 -4 -10 -7 -29 -7 -42 0 -13 -4 -27 -10 -30
-5 -3 -10 -1 -10 6 0 21 -13 1 -15 -23 -4 -36 -4 -38 -15 -38 -15 0 -12 32 5
54 8 11 15 33 15 50 0 24 12 41 57 83 31 29 58 51 60 49 2 -2 -3 -16 -12 -32z
m50 15 c5 -14 0 -29 -17 -47 -49 -56 -56 -52 -26 16 25 57 33 62 43 31z m89 5
c4 -9 -1 -28 -10 -41 l-16 -25 -15 22 c-14 19 -13 23 3 41 21 23 30 24 38 3z
m119 -21 c3 -16 8 -35 12 -44 8 -22 -60 -48 -78 -29 -9 8 -8 13 3 20 8 5 24
15 35 24 20 15 20 15 -3 9 -12 -3 -25 -9 -28 -14 -8 -14 -24 -10 -24 5 0 16
60 67 71 61 3 -3 9 -17 12 -32z m-3775 7 c13 -21 4 -27 -16 -10 -9 7 -9 7 -2
-2 14 -17 12 -28 -5 -28 -16 0 -19 17 -9 44 8 21 17 20 32 -4z m3117 -37 c-5
-38 -9 -44 -17 -30 -6 12 -5 29 2 53 16 48 24 36 15 -23z m153 28 c17 -23 18
-30 7 -34 -7 -3 -15 -18 -17 -34 l-4 -28 -12 28 c-14 32 -16 97 -4 97 5 0 18
-13 30 -29z m-3145 -36 c-6 -18 -19 -19 -29 -4 -7 12 15 31 28 23 4 -3 5 -11
1 -19z m37 -1 c0 -14 -4 -23 -9 -20 -5 3 -7 15 -4 26 7 28 13 25 13 -6z m3439
4 c7 -19 4 -28 -19 -50 -29 -28 -89 -68 -103 -68 -18 0 1 33 48 84 28 30 54
54 58 55 4 1 12 -9 16 -21z m-584 -34 c22 -37 25 -52 20 -84 -6 -38 -7 -39
-29 -24 -19 12 -24 27 -29 76 -5 56 -3 78 8 78 2 0 15 -21 30 -46z m665 27 c0
-4 -11 -13 -25 -19 -29 -14 -32 -9 -7 16 16 18 32 19 32 3z m220 -11 c15 -29
1 -48 -18 -24 -13 18 -14 18 -7 -3 5 -17 2 -23 -10 -23 -28 0 -30 31 -4 51 30
23 26 23 39 -1z m-586 -6 c6 -15 4 -15 -11 -3 -16 13 -17 12 -4 -3 7 -10 17
-16 21 -13 4 3 13 -2 19 -9 10 -12 5 -22 -24 -51 -20 -21 -39 -34 -43 -30 -12
12 -5 107 10 116 19 12 25 11 32 -7z m-3261 -1 c16 -26 -32 -197 -50 -179 -7
6 19 140 29 153 5 7 7 17 3 23 -3 5 -2 10 4 10 5 0 12 -3 14 -7z m617 3 c0
-25 -54 -111 -93 -149 -42 -41 -52 -46 -64 -35 -11 12 -11 17 1 33 12 16 16
17 30 6 17 -14 23 -2 6 15 -6 6 12 32 48 71 50 55 72 73 72 59z m-575 -15 c3
-5 1 -12 -5 -16 -5 -3 -10 1 -10 9 0 18 6 21 15 7z m250 -1 c3 -5 1 -10 -4
-10 -6 0 -11 5 -11 10 0 6 2 10 4 10 3 0 8 -4 11 -10z m2755 -29 c0 -11 -3
-11 -14 -1 -8 6 -12 18 -9 27 5 12 7 12 14 1 5 -7 9 -19 9 -27z m153 -60 c4
-29 2 -40 -4 -30 -7 11 -9 10 -9 -6 0 -11 -8 -28 -18 -36 -18 -15 -19 -14 -21
25 0 23 4 65 10 95 l11 55 13 -30 c6 -16 14 -49 18 -73z m440 85 c4 -9 -2 -17
-14 -21 -27 -9 -35 0 -19 20 16 19 26 19 33 1z m-3709 -60 c-4 -31 -11 -56
-15 -56 -14 0 -11 108 4 113 18 6 18 5 11 -57z m2640 24 c39 -59 34 -117 -7
-72 -14 16 -35 112 -24 112 2 0 16 -18 31 -40z m343 -27 c-4 -3 -13 0 -21 6
-12 10 -13 17 -3 38 l12 26 9 -32 c5 -17 6 -34 3 -38z m817 49 c-23 -22 -64
-34 -64 -20 0 5 -7 2 -16 -6 -16 -17 -44 -22 -44 -8 0 9 105 50 129 51 11 1 9
-4 -5 -17z m42 -4 c4 -7 3 -8 -4 -4 -7 4 -12 2 -12 -3 0 -6 -8 -11 -17 -11
-16 1 -16 2 1 15 24 18 23 18 32 3z m-1431 -49 c-4 -5 0 -6 8 -3 9 3 23 -6 35
-24 20 -27 20 -31 6 -80 -14 -46 -18 -51 -35 -42 -10 6 -19 17 -19 25 0 8 -6
12 -14 9 -23 -9 -26 9 -15 77 15 89 19 99 30 71 5 -13 7 -28 4 -33z m1245 41
c0 -6 -12 -15 -26 -20 -36 -14 -39 -13 -19 10 19 21 45 27 45 10z m-256 -27
c-4 -16 -11 -32 -15 -37 -5 -6 -9 -18 -9 -28 0 -19 -15 -24 -25 -9 -3 5 2 16
10 24 8 9 15 20 15 26 0 11 22 51 28 51 1 0 -1 -12 -4 -27z m-2994 -49 c0 -2
-13 -4 -30 -4 -34 0 -38 14 -14 49 l17 23 13 -32 c8 -18 14 -34 14 -36z m2706
39 c-7 -7 -26 7 -26 19 0 6 6 6 15 -2 9 -7 13 -15 11 -17z m797 20 c-7 -2 -19
-2 -25 0 -7 3 -2 5 12 5 14 0 19 -2 13 -5z m-343 -23 c-24 -15 -36 -11 -14 4
10 8 21 12 24 10 2 -3 -2 -9 -10 -14z m100 12 c0 -10 -79 -36 -87 -29 -2 3 9
8 26 12 17 4 33 11 36 16 8 11 25 12 25 1z m130 -4 c0 -4 -9 -8 -21 -8 -11 0
-18 4 -15 8 3 5 12 9 21 9 8 0 15 -4 15 -9z m-812 -82 c2 -31 -1 -56 -5 -56
-4 0 -25 15 -47 33 l-38 32 22 38 c21 35 24 37 44 24 16 -11 22 -26 24 -71z
m-2883 15 c-5 -34 -12 -51 -21 -51 -19 0 -18 43 2 81 21 41 28 31 19 -30z
m231 22 c-11 -11 -19 6 -11 24 8 17 8 17 12 0 3 -10 2 -21 -1 -24z m102 19 c6
-18 -15 -14 -22 4 -4 10 -1 14 6 12 6 -2 14 -10 16 -16z m2672 -39 c0 -24 -18
-31 -36 -13 -6 6 -8 24 -6 41 4 29 5 29 23 13 11 -9 19 -28 19 -41z m240 18
c-6 -12 -15 -21 -20 -21 -5 0 -7 -7 -4 -15 4 -8 10 -12 15 -9 5 3 9 1 9 -4 0
-5 -15 -9 -32 -9 -18 -1 -27 1 -20 4 6 3 12 13 12 23 0 20 43 74 48 60 2 -5
-2 -18 -8 -29z m-176 -32 c-3 -5 2 -12 10 -15 24 -9 19 -30 -10 -49 -29 -19
-54 -7 -54 26 0 24 26 25 39 2 6 -10 11 -13 11 -6 0 6 -5 15 -11 18 -6 4 -8
13 -5 21 3 8 0 13 -7 11 -7 -1 -13 11 -15 27 l-4 29 26 -28 c14 -15 23 -31 20
-36z m636 51 c0 -5 -12 -10 -26 -10 -14 0 -23 4 -19 10 3 6 15 10 26 10 10 0
19 -4 19 -10z m-3282 -22 c-6 -18 -28 -21 -28 -4 0 9 7 16 16 16 9 0 14 -5 12
-12z m2196 -50 c6 -27 -13 -33 -34 -12 -13 13 -17 28 -13 48 l6 29 18 -24 c10
-13 20 -32 23 -41z m1176 41 c0 -5 -13 -9 -30 -9 -32 0 -41 16 -12 22 21 5 42
-1 42 -13z m110 11 c0 -5 -9 -10 -21 -10 -11 0 -17 5 -14 10 3 6 13 10 21 10
8 0 14 -4 14 -10z m-977 -14 c17 -14 22 -37 10 -50 -4 -4 -9 -19 -11 -34 -5
-36 -12 -42 -12 -9 0 14 -4 29 -10 32 -12 7 -14 75 -2 75 4 0 15 -7 25 -14z
m594 8 c-3 -3 -12 -4 -19 -1 -8 3 -5 6 6 6 11 1 17 -2 13 -5z m203 -4 c0 -5
-9 -10 -21 -10 -11 0 -17 5 -14 10 3 6 13 10 21 10 8 0 14 -4 14 -10z m-3700
-26 c0 -14 -4 -23 -9 -20 -5 3 -7 15 -4 26 7 28 13 25 13 -6z m261 10 c-18 -8
-36 -12 -39 -9 -10 10 21 25 48 24 23 -1 22 -2 -9 -15z m87 -22 c4 -27 -14
-29 -28 -3 -14 27 -13 33 8 29 9 -2 18 -13 20 -26z m3542 19 c0 -5 3 -16 6
-24 3 -8 -2 -17 -10 -20 -10 -4 -18 4 -25 24 -9 26 -8 29 10 29 10 0 19 -4 19
-9z m-1370 -17 c0 -8 -4 -12 -10 -9 -5 3 -10 10 -10 16 0 5 5 9 10 9 6 0 10
-7 10 -16z m1256 3 c4 -4 -2 -7 -14 -7 -12 0 -22 4 -22 9 0 10 26 9 36 -2z
m-3668 -18 c-7 -11 -30 -30 -51 -40 l-38 -20 3 28 c2 22 10 30 43 39 55 17 57
17 43 -7z m2272 6 c10 6 67 -151 58 -160 -8 -9 -78 57 -78 73 0 13 -2 14 -9 3
-13 -20 -23 3 -15 36 10 41 27 70 32 55 2 -6 7 -10 12 -7z m71 5 c34 -10 37
-14 44 -56 3 -25 4 -49 0 -52 -7 -7 -53 45 -80 91 -18 30 -16 31 36 17z m504
-10 c30 0 34 -74 6 -90 -31 -16 -41 -12 -41 19 0 39 12 99 18 83 2 -6 10 -12
17 -12z m-2640 -11 c9 -26 -10 -48 -26 -32 -12 12 -3 53 11 53 5 0 12 -9 15
-21z m-70 -8 c6 -19 -40 -129 -60 -143 -31 -23 -38 13 -15 67 5 11 16 37 24
58 16 40 41 49 51 18z m133 -26 c-21 -24 -38 -25 -38 -3 0 6 7 20 17 30 12 13
19 15 29 7 10 -8 8 -15 -8 -34z m82 33 c0 -19 -18 -43 -25 -36 -9 9 4 48 16
48 5 0 9 -6 9 -12z m3330 2 c0 -5 -9 -10 -20 -10 -11 0 -20 5 -20 10 0 6 9 10
20 10 11 0 20 -4 20 -10z m-3056 -11 c3 -2 -9 -12 -26 -22 -28 -16 -30 -16
-24 -1 5 14 4 15 -8 5 -7 -6 -16 -26 -20 -43 -3 -17 -18 -47 -32 -66 -23 -30
-28 -32 -41 -19 -13 13 -10 22 27 73 24 33 50 65 58 72 15 11 55 12 66 1z
m2430 2 c3 -4 -6 -13 -19 -19 -27 -12 -33 -4 -13 16 14 14 25 15 32 3z m133 3
c-3 -3 -12 -4 -19 -1 -8 3 -5 6 6 6 11 1 17 -2 13 -5z m183 2 c0 -2 -3 -11 -6
-20 -9 -23 -34 -20 -34 4 0 13 7 20 20 20 11 0 20 -2 20 -4z m36 -10 c19 -19
18 -21 -11 -24 -27 -2 -28 -1 -19 22 8 20 12 20 30 2z m114 5 c0 -5 10 -7 23
-5 20 4 21 4 2 -5 -11 -5 -15 -10 -9 -10 5 -1 18 -7 28 -14 16 -12 16 -14 2
-26 -14 -12 -16 -11 -10 3 5 12 1 19 -13 22 -21 6 -50 44 -33 44 5 0 10 -4 10
-9z m352 -3 c0 -7 2 -17 2 -23 1 -5 8 -21 16 -35 12 -23 12 -24 -3 -11 -27 21
-20 2 14 -40 22 -28 26 -39 15 -39 -8 0 -17 4 -20 9 -3 5 -15 7 -26 4 -20 -5
-23 -1 -34 50 -5 23 -3 27 15 27 12 0 19 5 16 13 -2 6 -11 12 -20 12 -9 0 -22
6 -29 13 -10 10 -10 15 2 22 21 14 50 12 52 -2z m-4022 -7 c0 -30 -14 -71 -25
-71 -11 0 -11 30 0 68 5 14 25 17 25 3z m39 -3 c0 -7 -4 -22 -9 -33 -7 -17 -9
-15 -9 13 -1 17 4 32 9 32 6 0 10 -6 9 -12z m2570 -14 c39 -45 59 -85 53 -106
-3 -14 -1 -19 6 -15 13 9 28 -71 16 -83 -5 -4 -20 -11 -33 -15 -23 -7 -24 -6
-18 29 4 24 2 36 -6 36 -26 0 -39 20 -53 80 -14 60 -12 100 5 100 4 0 17 -12
30 -26z m861 4 c0 -6 -6 -5 -15 2 -8 7 -15 14 -15 16 0 2 7 1 15 -2 8 -4 15
-11 15 -16z m300 2 c0 -5 -9 -6 -20 -3 -11 3 -20 9 -20 13 0 5 9 6 20 3 11 -3
20 -9 20 -13z m180 4 c0 -8 -4 -12 -10 -9 -5 3 -10 10 -10 16 0 5 5 9 10 9 6
0 10 -7 10 -16z m-1300 -15 c0 -6 -4 -7 -10 -4 -5 3 -10 11 -10 16 0 6 5 7 10
4 6 -3 10 -11 10 -16z m500 12 c0 -5 -7 -14 -15 -21 -13 -10 -15 -9 -15 9 0
12 6 21 15 21 8 0 15 -4 15 -9z m-3202 -36 c-2 -10 -7 -12 -17 -5 -13 7 -13
11 -1 25 15 18 24 8 18 -20z m231 -52 c-7 -29 -18 -58 -26 -64 -19 -17 -17 9
9 88 26 77 38 60 17 -24z m291 51 c0 -8 -4 -14 -10 -14 -5 0 -7 -6 -5 -12 3
-7 -3 -25 -13 -40 l-18 -28 -22 29 -21 29 32 35 c23 27 35 33 44 25 7 -6 13
-17 13 -24z m3200 -3 c0 -6 -7 -11 -15 -11 -9 0 -15 10 -15 26 0 23 2 24 15
10 8 -8 15 -19 15 -25z m-3575 19 c-9 -14 -45 -32 -45 -23 0 7 24 22 48 32 2
0 0 -3 -3 -9z m37 -77 c-15 -46 -30 -83 -34 -83 -5 0 -14 15 -22 33 -12 30
-12 35 12 67 25 35 63 73 67 68 2 -2 -9 -40 -23 -85z m188 70 c-1 -19 -37 -69
-45 -61 -6 6 28 78 37 78 4 0 8 -8 8 -17z m60 -9 c0 -14 -12 -19 -23 -8 -9 9
4 35 14 28 5 -3 9 -12 9 -20z m2304 11 c-4 -8 -8 -15 -10 -15 -2 0 -4 7 -4 15
0 8 4 15 10 15 5 0 7 -7 4 -15z m416 -19 c-13 -13 -35 7 -25 24 5 8 11 8 21
-1 10 -8 12 -15 4 -23z m300 24 c0 -5 -6 -10 -14 -10 -8 0 -18 5 -21 10 -3 6
3 10 14 10 12 0 21 -4 21 -10z m430 -5 c0 -8 -4 -15 -9 -15 -13 0 -22 16 -14
24 11 11 23 6 23 -9z m-3953 -6 c11 -11 6 -59 -7 -59 -8 0 -20 34 -20 58 0 15
12 16 27 1z m3703 -2 c0 -5 -7 -7 -15 -3 -9 3 -15 0 -15 -9 0 -8 -4 -15 -9
-15 -5 0 -16 -3 -25 -6 -11 -4 -16 0 -16 13 0 11 3 23 7 27 10 9 73 4 73 -7z
m48 1 c-6 -18 -28 -21 -28 -4 0 9 7 16 16 16 9 0 14 -5 12 -12z m-1122 -36
c13 -22 19 -44 15 -56 -6 -14 -12 -6 -28 38 -24 64 -18 73 13 18z m971 23 c3
-9 3 -19 -1 -22 -8 -9 -37 18 -30 28 8 14 24 11 31 -6z m316 -5 c6 -23 -1 -25
-25 -6 -18 13 -14 26 8 26 6 0 14 -9 17 -20z m-728 0 c3 -5 -3 -10 -14 -10
-12 0 -21 5 -21 10 0 6 6 10 14 10 8 0 18 -4 21 -10z m-3135 -30 c-18 -11 -24
-6 -16 16 5 14 9 15 19 5 9 -9 9 -14 -3 -21z m2453 -3 c-4 -6 0 -8 9 -4 22 8
123 -86 115 -107 -4 -9 -2 -16 3 -16 6 0 10 -9 10 -19 0 -16 -9 -21 -42 -26
-98 -13 -121 -11 -133 12 -7 13 -15 20 -18 17 -18 -19 -17 34 2 89 13 34 24
68 27 76 3 10 7 11 19 1 8 -7 12 -17 8 -23z m972 13 c0 -7 -6 -15 -12 -17 -8
-3 -13 4 -13 17 0 13 5 20 13 18 6 -3 12 -11 12 -18z m55 5 c0 -8 -4 -15 -10
-15 -5 0 -10 7 -10 15 0 8 5 15 10 15 6 0 10 -7 10 -15z m420 5 c0 -5 -4 -10
-10 -10 -5 0 -10 5 -10 10 0 6 5 10 10 10 6 0 10 -4 10 -10z m132 -12 c15 -23
35 -88 24 -77 -3 3 -17 26 -31 52 -25 48 -20 66 7 25z m-3902 -13 c-7 -9 -15
-13 -18 -10 -3 2 1 11 8 20 7 9 15 13 18 10 3 -2 -1 -11 -8 -20z m2880 15 c0
-5 -2 -10 -4 -10 -3 0 -8 5 -11 10 -3 6 -1 10 4 10 6 0 11 -4 11 -10z m320
-10 c0 -11 -4 -20 -9 -20 -14 0 -23 18 -16 30 10 17 25 11 25 -10z m40 5 c0
-8 -4 -15 -10 -15 -5 0 -7 7 -4 15 4 8 8 15 10 15 2 0 4 -7 4 -15z m343 -10
c-5 -13 -23 -22 -23 -11 0 15 14 35 21 31 4 -3 6 -12 2 -20z m117 -2 c0 -9 9
-26 20 -38 13 -13 22 -40 24 -71 3 -27 2 -41 -1 -31 -2 9 -8 17 -13 17 -5 0
-10 19 -12 43 -2 34 -7 42 -23 42 -21 0 -31 25 -21 51 7 19 26 9 26 -13z
m-710 13 c0 -3 -4 -8 -10 -11 -5 -3 -10 -1 -10 4 0 6 5 11 10 11 6 0 10 -2 10
-4z m558 -20 c6 -29 -7 -66 -23 -66 -16 0 -21 44 -9 75 8 20 28 14 32 -9z
m313 -3 c-12 -20 -14 -14 -5 12 4 9 9 14 11 11 3 -2 0 -13 -6 -23z m-3511 -52
c0 -23 -23 -81 -32 -81 -8 0 -26 17 -62 58 -19 22 -19 23 15 58 l34 35 22 -28
c13 -15 23 -34 23 -42z m2388 25 c2 -28 0 -37 -9 -34 -7 2 -14 21 -15 42 -1
49 20 42 24 -8z m212 33 c0 -5 -5 -7 -12 -3 -7 5 -9 2 -5 -9 4 -10 0 -18 -12
-22 -10 -3 -18 -13 -17 -22 0 -9 -4 -18 -11 -20 -8 -3 -11 5 -8 24 2 15 4 32
4 36 1 7 37 25 54 26 4 1 7 -4 7 -10z m210 -4 c0 -9 -9 -15 -25 -15 -26 0 -34
15 -12 23 23 10 37 7 37 -8z m301 -27 c-4 -38 -5 -40 -12 -18 -11 39 -10 60 4
60 9 0 11 -12 8 -42z m144 -26 c-6 -14 -8 -13 -16 6 -6 16 -5 31 3 45 13 22
13 21 16 -6 2 -16 0 -36 -3 -45z m32 62 c-3 -4 0 -12 6 -19 13 -13 11 -99 -2
-90 -4 2 -5 -9 -3 -26 2 -16 0 -29 -6 -29 -17 0 -26 69 -14 107 6 19 8 41 5
49 -3 8 1 14 8 14 7 0 10 -3 6 -6z m-243 -19 c3 -8 2 -25 -3 -37 l-8 -22 -12
21 c-6 12 -11 29 -11 37 0 20 26 21 34 1z m33 -17 c-3 -7 -5 -2 -5 12 0 14 2
19 5 13 2 -7 2 -19 0 -25z m-97 7 c18 -21 3 -55 -25 -55 -21 0 -34 21 -35 58
0 17 45 15 60 -3z m-3416 -42 c-6 -47 -31 -109 -40 -101 -7 8 19 133 30 140
17 12 18 11 10 -39z m3326 38 c0 -17 -12 -41 -20 -41 -5 0 -7 8 -5 18 2 9 4
20 4 25 1 10 21 9 21 -2z m237 -28 c-3 -10 -5 -4 -5 12 0 17 2 24 5 18 2 -7 2
-21 0 -30z m-2637 17 c0 -5 -4 -10 -10 -10 -5 0 -10 -8 -10 -18 0 -19 -18 -42
-32 -42 -15 0 -8 21 15 50 23 30 37 37 37 20z m1666 -31 c15 -43 11 -47 -19
-19 -15 14 -22 31 -19 42 7 27 25 17 38 -23z m673 11 c10 -29 9 -30 -19 -30
-33 0 -53 36 -29 51 24 15 37 10 48 -21z m661 9 c0 -6 -4 -7 -10 -4 -5 3 -10
11 -10 16 0 6 5 7 10 4 6 -3 10 -11 10 -16z m60 11 c0 -5 -2 -10 -4 -10 -3 0
-8 5 -11 10 -3 6 -1 10 4 10 6 0 11 -4 11 -10z m-3343 -15 c6 -18 -21 -52 -50
-61 -12 -4 -27 -13 -35 -21 -8 -8 -17 -12 -19 -9 -6 6 79 106 90 106 4 0 10
-7 14 -15z m3019 -75 c3 -80 0 -87 -24 -71 -12 7 -12 22 -2 85 7 42 15 74 18
71 3 -3 7 -41 8 -85z m-1368 -10 c9 -14 22 -29 29 -33 22 -14 14 -26 -17 -25
-33 1 -40 10 -63 74 -8 21 -18 48 -22 59 -7 21 43 -31 73 -75z m586 51 c-9
-10 -26 18 -18 30 5 9 9 8 14 -7 4 -10 6 -21 4 -23z m246 17 c0 -18 -2 -20 -9
-8 -6 8 -7 18 -5 22 9 14 14 9 14 -14z m70 13 c0 -5 3 -16 6 -25 5 -12 -1 -16
-25 -16 -29 0 -30 1 -19 25 11 24 38 35 38 16z m150 -6 c0 -8 -4 -15 -10 -15
-5 0 -7 7 -4 15 4 8 8 15 10 15 2 0 4 -7 4 -15z m435 -81 c-6 -34 -7 -35 -20
-17 -11 15 -14 78 -6 113 1 3 9 -10 17 -27 11 -22 14 -44 9 -69z m185 87 c0
-5 3 -17 7 -27 4 -11 3 -15 -4 -11 -14 9 -24 47 -12 47 5 0 9 -4 9 -9z m-4027
-116 c-6 -19 -7 -18 -14 5 -10 34 -11 95 -1 104 10 10 23 -84 15 -109z m297
95 c-6 -11 -13 -20 -15 -20 -3 0 -5 9 -5 20 0 11 7 20 15 20 13 0 14 -4 5 -20z
m763 -54 c20 -27 37 -55 37 -62 0 -7 3 -14 8 -16 12 -5 72 -125 72 -144 0 -14
-3 -15 -12 -6 -17 17 -44 15 -62 -4 -9 -8 -20 -12 -26 -9 -19 12 -63 109 -51
113 17 6 13 20 -6 18 -9 0 -29 18 -46 43 l-30 44 18 33 c10 19 22 34 27 34 4
0 7 3 7 8 -5 33 7 22 64 -52z m1763 27 c-8 -8 -12 -3 -21 27 l-7 25 17 -23 c9
-13 14 -26 11 -29z m1248 23 c30 -27 32 -36 11 -36 -8 0 -21 14 -30 30 -19 36
-14 38 19 6z m-3925 -5 c8 -15 7 -20 -5 -25 -23 -9 -24 -8 -24 19 0 30 15 33
29 6z m3019 -4 c3 -12 -4 -17 -22 -17 -24 0 -25 2 -14 20 15 23 31 21 36 -3z
m828 8 c10 -8 14 -15 8 -15 -5 0 -19 7 -30 15 -10 8 -14 15 -8 15 5 0 19 -7
30 -15z m-3572 -36 c35 -41 35 -42 20 -78 -8 -20 -23 -47 -32 -61 -9 -14 -16
-29 -17 -35 0 -5 -6 -26 -13 -46 -10 -29 -17 -36 -32 -32 -11 3 -20 14 -20 24
0 11 -3 19 -7 19 -5 0 -21 24 -36 54 -28 53 -28 55 -12 88 21 40 84 108 101
108 7 0 28 -19 48 -41z m1618 -26 c23 -38 45 -72 47 -78 2 -5 17 -32 33 -58
17 -26 28 -50 25 -53 -3 -3 -33 -2 -67 2 -51 6 -64 11 -78 33 -9 14 -19 28
-22 31 -3 3 -13 20 -23 38 -16 27 -17 38 -7 67 6 19 15 33 20 30 4 -2 10 9 14
25 3 17 7 30 10 30 2 0 24 -30 48 -67z m1640 27 c-6 -41 -12 -38 -12 6 0 19 4
33 8 30 5 -3 7 -19 4 -36z m-3461 -23 c-16 -16 -26 20 -10 40 13 15 14 14 17
-7 2 -12 -1 -27 -7 -33z m509 39 c0 -13 -48 -51 -56 -44 -4 4 44 58 51 58 3 0
5 -6 5 -14z m2750 -1 c0 -8 -9 -15 -20 -15 -11 0 -20 7 -20 15 0 8 9 15 20 15
11 0 20 -7 20 -15z m40 5 c0 -5 -4 -10 -10 -10 -5 0 -10 5 -10 10 0 6 5 10 10
10 6 0 10 -4 10 -10z m70 -9 c5 -11 10 -32 10 -48 l0 -28 -20 33 c-21 35 -26
62 -10 62 5 0 14 -9 20 -19z m-2752 -26 c-39 -37 -48 -42 -48 -24 0 16 52 59
70 59 9 0 1 -14 -22 -35z m1812 -4 c-1 -13 -3 -13 -15 3 -19 26 -19 42 0 26 8
-7 15 -20 15 -29z m773 25 c7 -17 -1 -26 -24 -26 -12 0 -16 6 -12 20 6 23 28
27 36 6z m579 -7 c20 -15 28 -28 25 -40 -3 -11 0 -19 6 -19 7 0 4 -5 -5 -11
-10 -5 -29 -7 -43 -3 -23 6 -25 10 -23 50 2 24 5 44 6 44 2 0 17 -10 34 -21z
m-951 -30 c-4 -20 -15 -35 -28 -40 -33 -12 -41 10 -12 32 13 10 20 19 15 19
-5 0 -3 7 4 15 18 22 28 10 21 -26z m229 14 c0 -11 -8 -14 -30 -11 -22 3 -30
1 -31 -11 0 -12 -3 -11 -9 4 -13 31 -12 34 23 37 39 4 47 1 47 -19z m50 7 c0
-11 -6 -20 -14 -20 -7 0 -16 9 -19 20 -4 15 0 20 14 20 12 0 19 -7 19 -20z
m851 -26 c20 -42 3 -41 -22 2 -21 35 -23 45 -6 38 6 -3 19 -21 28 -40z m-4008
22 c10 -26 -34 -136 -55 -136 -5 0 -8 23 -8 52 0 39 5 57 22 75 25 27 34 29
41 9z m3004 -1 c3 -9 3 -19 -1 -22 -8 -9 -37 18 -30 28 8 14 24 11 31 -6z
m177 0 c3 -8 1 -15 -4 -15 -6 0 -10 7 -10 15 0 8 2 15 4 15 2 0 6 -7 10 -15z
m154 -11 c-7 -15 -14 -21 -16 -15 -5 16 5 41 17 41 7 0 6 -10 -1 -26z m50 1
c15 -33 15 -34 -5 -30 -10 2 -21 4 -25 4 -10 1 -10 35 -1 44 12 12 20 7 31
-18z m79 -7 c-3 -7 -5 -2 -5 12 0 14 2 19 5 13 2 -7 2 -19 0 -25z m-2877 13
c0 -5 -7 -11 -15 -15 -15 -5 -20 5 -8 17 9 10 23 9 23 -2z m156 -5 c3 -7 -18
-59 -47 -114 -45 -86 -54 -99 -73 -94 -18 5 -19 3 -8 -10 10 -12 9 -22 -3 -52
-18 -41 -25 -44 -50 -16 -10 11 -29 20 -42 20 -46 0 -25 26 37 46 27 9 30 12
13 13 -13 1 -23 4 -23 7 0 4 24 35 53 69 28 34 67 80 86 103 36 44 48 51 57
28z m1884 -8 c0 -6 -10 -8 -26 -4 -17 5 -23 3 -19 -4 3 -5 15 -10 26 -10 13 0
19 -7 19 -21 0 -32 -42 -21 -51 14 -6 23 -4 30 14 36 24 9 37 6 37 -11z m110
13 c0 -12 -20 -25 -27 -18 -7 7 6 27 18 27 5 0 9 -4 9 -9z m180 2 c0 -14 -19
-38 -25 -32 -8 8 5 39 16 39 5 0 9 -3 9 -7z m390 -3 c0 -5 -5 -10 -11 -10 -5
0 -7 5 -4 10 3 6 8 10 11 10 2 0 4 -4 4 -10z m-355 -10 c-3 -5 -11 -10 -16
-10 -6 0 -7 5 -4 10 3 6 11 10 16 10 6 0 7 -4 4 -10z m652 -46 c14 -32 12
-148 -3 -210 l-7 -27 -15 29 c-21 38 -25 175 -5 167 7 -3 13 2 13 12 0 9 -4
13 -10 10 -6 -4 -10 8 -10 28 0 35 12 58 19 35 2 -7 10 -27 18 -44z m116 14
c8 -21 -11 -80 -24 -73 -4 3 -8 30 -7 59 1 54 14 59 31 14z m213 15 c1 -13 -3
-20 -7 -17 -18 11 -8 -8 14 -27 l22 -20 -24 13 c-35 19 -61 41 -61 52 0 6 5 5
12 -2 7 -7 16 -12 20 -12 11 0 6 23 -7 33 -6 5 -1 7 10 5 13 -2 20 -11 21 -25z
m30 19 c-3 -5 11 -26 30 -47 32 -37 34 -62 3 -50 -31 12 -65 105 -38 105 5 0
8 -4 5 -8z m-3426 -14 c0 -13 -88 -98 -101 -98 -14 0 -11 26 4 39 8 6 17 8 21
4 4 -4 4 0 1 9 -4 10 4 22 27 36 39 24 48 26 48 10z m2240 3 c0 -6 -4 -13 -10
-16 -5 -3 -10 1 -10 9 0 9 5 16 10 16 6 0 10 -4 10 -9z m-2852 -71 c-5 -74
-10 -86 -28 -75 -17 11 7 145 26 145 4 0 4 -32 2 -70z m646 9 c-41 -42 -58
-50 -46 -21 11 28 35 58 57 70 35 19 29 -8 -11 -49z m1940 35 c13 -33 4 -42
-23 -25 -14 9 -9 41 8 41 5 0 12 -7 15 -16z m1144 -8 c8 -17 8 -36 0 -63 -18
-67 -28 -61 -28 15 0 74 9 90 28 48z m-3218 10 c0 -2 -8 -10 -17 -17 -16 -13
-17 -12 -4 4 13 16 21 21 21 13z m354 -37 c27 -40 27 -41 9 -61 -10 -11 -40
-36 -68 -56 -27 -20 -51 -40 -53 -44 -8 -18 -23 -6 -17 12 7 23 95 190 99 190
2 0 16 -18 30 -41z m1650 33 c3 -5 -24 -9 -59 -9 -36 -1 -62 3 -59 8 7 11 111
12 118 1z m546 -7 c0 -15 -18 -30 -47 -39 -20 -7 -23 -4 -23 22 0 28 3 30 35
30 22 0 35 -5 35 -13z m87 9 c-3 -3 -12 -4 -19 -1 -8 3 -5 6 6 6 11 1 17 -2
13 -5z m207 -25 c3 -17 7 -59 7 -93 1 -33 3 -53 6 -43 2 9 9 17 14 17 6 0 8 4
4 9 -3 6 0 31 6 58 l12 47 19 -44 c10 -24 30 -92 44 -150 13 -58 31 -132 39
-165 8 -33 17 -77 21 -98 3 -20 10 -39 14 -42 7 -4 4 13 -14 100 -3 17 11 -18
31 -78 20 -59 38 -106 40 -104 5 5 -65 274 -92 351 -8 22 -15 53 -15 68 0 14
-4 28 -9 30 -15 5 -61 158 -47 158 46 -1 56 -12 57 -64 0 -28 3 -44 6 -36 14
44 15 45 29 15 7 -16 13 -42 14 -57 0 -29 15 -46 23 -26 3 7 6 1 6 -14 1 -16
-3 -28 -9 -28 -5 0 -10 -21 -10 -46 0 -32 4 -44 12 -42 7 3 13 13 14 24 0 10
1 35 2 54 3 39 17 68 28 57 4 -4 7 -29 7 -55 -1 -26 1 -38 3 -27 15 62 25 49
58 -78 10 -37 22 -69 26 -72 5 -3 6 3 3 13 -2 10 7 42 21 72 l25 54 11 -28 c6
-16 8 -38 5 -50 -5 -17 -4 -18 4 -6 6 8 11 11 11 5 0 -14 -23 -77 -34 -94 -6
-10 -5 -12 2 -7 16 10 15 1 -4 -35 -8 -17 -14 -33 -11 -35 4 -4 21 26 38 71
10 23 13 26 16 12 3 -10 -1 -25 -9 -34 -7 -9 -8 -14 -2 -10 9 5 12 -55 13
-227 1 -153 -2 -237 -9 -241 -5 -3 -10 -1 -10 5 0 8 -9 10 -25 6 -24 -6 -25
-4 -20 21 6 27 6 27 -9 9 -12 -15 -16 -16 -16 -5 -1 10 -3 9 -11 -4 -13 -22
-29 -13 -29 18 0 13 -5 25 -11 27 -7 2 -6 8 4 16 12 10 18 10 30 -2 21 -21 55
-17 49 6 -2 10 -10 18 -17 18 -7 0 -16 7 -19 16 -5 12 -14 14 -46 9 -33 -6
-40 -4 -40 9 0 9 8 16 20 16 24 0 26 13 4 30 -10 9 -49 13 -122 13 -92 0 -112
-3 -143 -22 l-37 -22 -6 26 c-4 14 -4 30 -1 35 4 6 2 10 -4 10 -5 0 -18 27
-27 60 -9 33 -20 63 -24 65 -8 5 6 -71 16 -87 7 -12 3 -10 -36 10 -78 41 -110
65 -110 82 0 10 -3 31 -6 49 l-6 31 46 -25 c51 -27 60 -30 51 -16 -3 6 -26 20
-51 33 -26 12 -48 27 -49 33 -2 5 -8 26 -14 45 l-11 35 5 -37 c2 -21 2 -38 0
-38 -3 0 -23 9 -45 21 -30 16 -40 27 -40 45 0 23 3 24 38 19 l37 -5 -35 13
c-34 13 -35 15 -38 78 -2 35 -7 68 -13 74 -19 19 -7 24 61 24 l70 0 1 -37 2
-37 6 40 c8 54 17 35 26 -53 4 -41 11 -86 16 -100 5 -17 6 0 2 43 -11 113 -10
140 7 140 11 0 18 -22 26 -90 7 -58 12 -76 13 -50 2 50 16 124 25 133 4 3 11
0 16 -8 7 -11 10 -12 10 -2 0 10 15 13 53 12 76 -2 85 -1 69 9 -7 4 -34 9 -59
10 -25 0 -49 4 -54 7 -10 6 -12 167 -2 177 3 4 16 7 28 7 17 0 24 -8 29 -31z
m38 -2 c-5 -18 -7 -19 -10 -4 -2 9 -8 17 -13 17 -5 0 -9 4 -9 9 0 5 8 7 19 4
14 -3 17 -11 13 -26z m-2993 9 c14 -17 3 -49 -15 -42 -9 3 -14 -1 -14 -13 0
-9 -11 -28 -25 -41 -29 -28 -31 -24 -9 27 41 93 42 94 63 69z m2401 -7 c0 -6
-9 -22 -20 -36 -20 -26 -25 -17 -14 25 6 22 34 32 34 11z m460 -21 c0 -58 -13
-138 -21 -138 -5 0 -9 38 -9 85 0 69 3 85 15 85 10 0 15 -10 15 -32z m881 -5
c12 -21 32 -49 43 -62 13 -15 15 -21 6 -17 -8 4 -4 -1 10 -12 14 -12 21 -24
17 -28 -8 -9 -47 24 -47 41 0 7 -9 20 -20 30 -11 10 -20 26 -20 36 0 10 -4 21
-10 24 -10 6 -14 25 -6 25 2 0 14 -17 27 -37z m-1873 16 c-2 -6 -8 -10 -13
-10 -5 0 -11 4 -13 10 -2 6 4 11 13 11 9 0 15 -5 13 -11z m102 -51 c60 -82
103 -168 87 -173 -7 -1 -20 -6 -30 -9 -14 -5 -21 1 -30 24 -6 16 -20 31 -32
33 -11 2 -3 5 18 6 20 0 37 5 37 10 0 4 -24 6 -54 4 l-54 -4 -21 41 c-24 46
-26 68 -9 105 18 39 39 30 88 -37z m70 39 c0 -43 -12 -42 -49 6 -12 15 -11 17
18 17 26 0 31 -4 31 -23z m503 3 c-3 -11 -9 -17 -14 -14 -14 8 -10 34 5 34 9
0 12 -7 9 -20z m257 -8 c0 -15 3 -51 7 -80 5 -46 4 -52 -11 -46 -10 4 -16 17
-16 35 0 17 -6 32 -15 35 -8 4 -15 14 -15 23 0 9 -6 23 -12 29 -16 16 -2 26
36 30 22 1 26 -2 26 -26z m420 -15 c0 -36 -15 -27 -25 16 -6 22 -4 26 9 21 10
-4 16 -18 16 -37z m-3703 -4 c-3 -10 -5 -4 -5 12 0 17 2 24 5 18 2 -7 2 -21 0
-30z m734 0 c-78 -95 -81 -98 -81 -81 0 17 87 115 103 117 5 1 -5 -16 -22 -36z
m1859 27 c0 -5 -4 -10 -8 -10 -4 0 -13 -13 -19 -30 -6 -16 -16 -30 -22 -30
-12 0 -15 39 -5 64 7 17 54 22 54 6z m39 -46 c1 -21 -36 -54 -60 -54 -12 0 -4
51 10 60 5 3 14 16 21 30 13 23 14 24 21 5 4 -11 8 -30 8 -41z m-2422 39 c-2
-5 -11 -25 -21 -45 -9 -21 -19 -38 -21 -38 -6 0 17 63 28 78 10 13 21 17 14 5z
m2773 -3 c0 -5 -2 -10 -4 -10 -3 0 -8 5 -11 10 -3 6 -1 10 4 10 6 0 11 -4 11
-10z m-2327 -22 c-11 -44 -53 -76 -53 -41 0 13 42 59 57 63 0 0 -1 -10 -4 -22z
m2027 7 c0 -8 -7 -15 -15 -15 -8 0 -15 7 -15 15 0 8 7 15 15 15 8 0 15 -7 15
-15z m270 -6 c0 -17 -5 -20 -25 -17 -14 3 -28 1 -31 -3 -9 -14 -24 -10 -24 6
0 21 30 31 40 14 7 -11 10 -10 16 4 9 24 24 21 24 -4z m211 -11 l2 -33 6 35 6
35 17 -25 c8 -14 19 -42 22 -62 l7 -38 -81 0 -81 0 3 48 c3 44 5 48 38 59 53
18 60 16 61 -19z m786 10 c-3 -8 -6 -5 -6 6 -1 11 2 17 5 13 3 -3 4 -12 1 -19z
m-2726 -50 c7 -2 9 -9 5 -17 -6 -9 -16 -3 -37 21 -15 18 -28 29 -29 23 0 -5
16 -27 35 -48 37 -40 45 -64 21 -64 -8 0 -27 25 -43 56 -37 75 -38 75 -23 66
10 -6 12 -3 6 10 -4 12 4 7 23 -12 16 -17 35 -33 42 -35z m1267 31 c13 -16 20
-29 15 -29 -5 0 -19 14 -31 30 -29 39 -14 38 16 -1z m322 -12 c0 -10 -4 -15
-10 -12 -5 3 -10 18 -10 33 0 21 2 24 10 12 5 -8 10 -23 10 -33z m1034 -7 c-3
-8 -7 -26 -9 -40 -4 -43 -5 -44 -19 -24 -8 10 -13 29 -10 42 16 81 14 79 30
57 8 -11 12 -26 8 -35z m-3576 -4 l20 -33 -38 -37 c-20 -20 -40 -36 -44 -36
-7 0 0 50 15 113 11 42 18 41 47 -7z m224 2 c-7 -7 -12 -18 -12 -25 0 -18 -67
-110 -85 -117 -21 -8 -20 -3 22 61 39 62 75 104 82 97 3 -2 -1 -10 -7 -16z
m508 2 c0 -5 -18 -28 -40 -52 -22 -24 -40 -39 -40 -35 0 11 30 66 49 89 13 17
31 16 31 -2z m1692 -5 c0 -14 1 -29 2 -35 1 -5 -3 -10 -9 -10 -11 -1 -26 56
-17 65 12 12 22 3 24 -20z m68 16 c0 -5 -3 -23 -7 -42 -5 -28 -7 -30 -14 -14
-13 34 -10 65 6 65 8 0 15 -4 15 -9z m290 -1 c0 -5 -2 -10 -4 -10 -3 0 -8 5
-11 10 -3 6 -1 10 4 10 6 0 11 -4 11 -10z m587 -12 c-3 -8 -6 -5 -6 6 -1 11 2
17 5 13 3 -3 4 -12 1 -19z m573 12 c0 -5 -2 -10 -4 -10 -3 0 -8 5 -11 10 -3 6
-1 10 4 10 6 0 11 -4 11 -10z m-1221 -61 c5 -24 16 -69 24 -99 9 -30 13 -57
10 -60 -7 -7 -30 26 -60 85 -14 28 -32 58 -40 67 -9 10 -13 24 -10 33 9 21 37
19 38 -2 0 -13 3 -11 10 6 12 30 17 25 28 -30z m-2854 11 c-4 -12 -9 -19 -12
-17 -3 3 -2 15 2 27 4 12 9 19 12 17 3 -3 2 -15 -2 -27z m2523 1 c2 -13 -5
-32 -15 -43 -18 -20 -18 -21 3 -10 21 11 34 7 34 -9 0 -4 -10 -9 -22 -11 -25
-3 -58 29 -58 57 0 20 29 46 45 41 6 -1 11 -13 13 -25z m381 -13 c1 -5 -6 -8
-14 -8 -16 0 -19 9 -8 36 6 16 7 16 14 -2 4 -10 8 -22 8 -26z m-2847 -15 c-3
-28 -9 -43 -18 -43 -17 0 -17 2 -5 32 5 13 12 32 15 42 10 29 13 15 8 -31z
m385 31 c8 -20 -34 -55 -56 -46 -10 4 -13 1 -8 -11 4 -11 1 -17 -8 -17 -23 0
-18 16 18 54 36 40 45 43 54 20z m1957 0 c9 -24 7 -28 -9 -14 -17 14 -20 30
-6 30 5 0 12 -7 15 -16z m817 -27 c-8 -8 -11 -5 -11 9 0 27 14 41 18 19 2 -9
-1 -22 -7 -28z m519 6 c3 -67 0 -107 -9 -116 -5 -5 -12 0 -15 12 -3 12 -9 31
-12 42 -4 14 -2 19 5 15 7 -5 9 -1 5 9 -5 13 12 75 21 75 2 0 4 -17 5 -37z
m-2842 2 c16 -34 16 -34 -10 -28 -19 5 -21 3 -10 -8 21 -23 14 -46 -18 -58
-17 -5 -30 -17 -30 -26 0 -9 5 -13 10 -10 14 9 47 -3 53 -19 3 -8 -10 -22 -33
-35 l-37 -21 -27 21 c-26 21 -63 22 -59 2 1 -6 -7 -13 -17 -16 -24 -6 -27 15
-5 33 8 7 15 19 15 28 0 14 137 162 151 162 3 0 11 -11 17 -25z m1748 -2 c-10
-10 -19 5 -10 18 6 11 8 11 12 0 2 -7 1 -15 -2 -18z m1027 -24 c13 -9 1 -93
-18 -126 -13 -23 -15 -24 -12 -6 3 12 0 24 -6 26 -8 2 -8 20 0 66 7 34 10 70
7 79 -2 9 1 6 8 -8 7 -14 16 -28 21 -31z m467 1 c17 -27 29 -54 25 -60 -8 -13
-35 20 -39 46 -1 9 -9 19 -16 24 -15 9 -23 40 -10 40 4 0 22 -22 40 -50z
m-3352 33 c-7 -17 -70 -113 -74 -113 -2 0 -8 9 -14 21 -10 17 -6 25 32 59 40
36 64 50 56 33z m1942 -18 c0 -14 -4 -25 -10 -25 -5 0 -10 11 -10 25 0 14 5
25 10 25 6 0 10 -11 10 -25z m40 -5 c0 -5 -4 -10 -10 -10 -5 0 -10 5 -10 10 0
6 5 10 10 10 6 0 10 -4 10 -10z m-80 -10 c0 -5 -7 -10 -15 -10 -8 0 -15 5 -15
10 0 6 7 10 15 10 8 0 15 -4 15 -10z m221 -28 c1 -27 1 -27 8 3 6 26 8 27 13
10 10 -29 21 -135 15 -135 -24 0 -37 16 -37 45 0 19 -4 37 -10 40 -5 3 -10 22
-10 41 0 41 19 37 21 -4z m-2669 6 c-7 -7 -12 -8 -12 -2 0 14 12 26 19 19 2
-3 -1 -11 -7 -17z m2568 -23 c0 -7 10 -24 21 -39 12 -15 19 -29 17 -32 -10 -9
-58 16 -58 30 0 9 -9 20 -20 26 -22 12 -27 46 -7 53 14 5 47 -21 47 -38z
m-2343 29 c-3 -3 -12 -4 -19 -1 -8 3 -5 6 6 6 11 1 17 -2 13 -5z m1781 -9 c3
-3 -9 -5 -27 -5 -18 0 -30 4 -26 9 5 10 43 7 53 -4z m342 -17 c0 -5 -4 -8 -10
-8 -5 0 -10 10 -10 23 0 18 2 19 10 7 5 -8 10 -18 10 -22z m597 -30 c-2 -13
-4 -3 -4 22 0 25 2 35 4 23 2 -13 2 -33 0 -45z m-3043 27 c-10 -8 -23 -14 -29
-14 -5 -1 1 8 15 19 14 10 27 17 29 14 3 -2 -4 -11 -15 -19z m2181 -22 c7 -24
-1 -28 -29 -17 -19 7 -21 40 -3 47 15 6 23 -2 32 -30z m345 33 c0 -2 -7 -9
-15 -16 -12 -10 -15 -10 -15 4 0 9 7 16 15 16 8 0 15 -2 15 -4z m-2220 -26
c-6 -11 -15 -18 -21 -15 -5 4 -9 0 -9 -8 0 -7 -16 -36 -35 -63 -19 -27 -35
-43 -35 -35 0 10 -8 7 -27 -10 -23 -21 -25 -22 -19 -4 5 11 12 32 16 47 9 30
79 100 92 92 4 -3 8 0 8 5 0 6 9 11 20 11 18 0 19 -3 10 -20z m110 -5 l23 -25
-23 -25 c-13 -14 -28 -24 -34 -22 -12 4 -37 77 -30 88 10 17 40 9 64 -16z
m136 -10 c4 -18 -1 -33 -18 -54 l-25 -29 -13 22 c-18 27 -14 47 13 68 29 23
36 22 43 -7z m2006 0 c3 -14 1 -26 -3 -26 -57 -8 -75 -3 -58 17 6 7 15 12 19
9 4 -3 10 2 14 10 8 23 23 18 28 -10z m-168 -3 c3 -5 2 -19 -1 -32 -6 -22 -7
-23 -14 -4 -4 10 -8 25 -8 32 -1 14 15 16 23 4z m223 -14 c-3 -8 -6 -5 -6 6
-1 11 2 17 5 13 3 -3 4 -12 1 -19z m-2744 -8 c-3 -11 -9 -17 -14 -15 -10 7 -1
35 11 35 5 0 6 -9 3 -20z m157 11 c0 -23 -21 -62 -30 -56 -14 8 -13 38 2 53
14 14 28 16 28 3z m2260 -1 c0 -5 -7 -10 -16 -10 -8 0 -12 5 -9 10 3 6 10 10
16 10 5 0 9 -4 9 -10z m-1937 -85 c-13 -9 -22 -10 -30 -3 -16 13 -16 30 -1 63
l12 26 19 -36 c18 -36 18 -37 0 -50z m1901 53 c-4 -6 -10 -5 -15 3 -14 22 -10
33 6 19 8 -7 12 -17 9 -22z m-2411 -23 c16 -35 16 -35 -2 -26 -10 6 -21 22
-23 36 -7 36 5 31 25 -10z m220 1 c-10 -14 -22 -26 -26 -26 -5 0 1 14 13 31
12 16 24 28 27 25 3 -2 -3 -16 -14 -30z m2517 -11 c3 -45 3 -45 -37 -29 -35
14 -36 13 -18 -1 11 -9 19 -20 18 -25 -2 -5 6 -14 17 -20 15 -8 20 -21 21 -58
0 -35 3 -42 9 -27 8 18 9 17 9 -7 1 -32 0 -33 -39 -13 -18 9 -32 26 -35 43 -3
15 -10 44 -16 65 -14 55 -19 98 -9 92 4 -3 21 2 36 10 33 17 42 11 44 -30z
m50 35 c0 -5 -4 -10 -10 -10 -5 0 -10 5 -10 10 0 6 5 10 10 10 6 0 10 -4 10
-10z m-280 -31 c0 -11 -4 -17 -10 -14 -5 3 -10 15 -10 26 0 11 5 17 10 14 6
-3 10 -15 10 -26z m-1380 7 c0 -8 -5 -18 -11 -22 -14 -8 -33 11 -25 25 10 16
36 13 36 -3z m78 -34 c-6 -27 -23 -16 -26 18 -2 33 -2 34 13 15 9 -11 14 -26
13 -33z m1406 18 c-5 -5 -22 -12 -38 -16 -26 -6 -27 -5 -17 14 6 11 21 22 33
24 25 3 36 -8 22 -22z m278 6 c10 -14 10 -26 1 -26 -12 0 -73 39 -73 46 0 10
64 -8 72 -20z m-2772 -12 c7 -17 7 -32 0 -45 -17 -31 -31 -22 -29 19 4 59 13
68 29 26z m465 -13 c-9 -18 -20 -29 -25 -26 -15 9 -12 19 11 44 28 29 35 21
14 -18z m61 27 c4 -6 -1 -17 -11 -24 -23 -17 -26 -14 -18 14 6 24 18 28 29 10z
m588 -3 c3 -8 1 -15 -3 -15 -5 0 -11 7 -15 15 -3 8 -1 15 3 15 5 0 11 -7 15
-15z m1560 -1 c9 -25 7 -69 -3 -58 -14 14 -24 74 -13 74 5 0 13 -7 16 -16z
m-555 -19 c38 -19 70 -57 81 -95 12 -43 7 -48 -11 -12 -18 35 -23 38 -86 58
-29 9 -53 20 -53 24 0 15 -58 30 -63 17 -2 -7 -8 -9 -12 -5 -4 4 -2 15 6 24
10 13 23 15 63 9 27 -3 61 -12 75 -20z m-1805 -17 c-16 -53 -32 -76 -86 -127
-57 -53 -81 -60 -35 -10 13 13 26 30 28 35 2 6 20 36 39 67 35 57 68 78 54 35z
m2198 -28 c-3 -39 -8 -50 -21 -50 -18 0 -45 56 -35 72 5 8 39 26 54 27 3 1 3
-21 2 -49z m238 30 c23 -12 40 -28 40 -38 0 -9 3 -27 6 -40 l7 -23 -42 22
c-44 23 -61 45 -61 78 0 26 1 26 50 1z m108 -7 c5 -35 -28 -26 -41 10 -6 15
-2 18 16 15 14 -2 23 -11 25 -25z m-1698 -33 c0 -6 -74 -60 -83 -60 -2 0 -5
15 -5 33 -1 24 6 38 26 55 l27 22 18 -21 c9 -12 17 -25 17 -29z m-811 14 c-15
-18 -22 -13 -13 10 3 9 10 13 16 10 5 -3 4 -12 -3 -20z m-175 -11 c-4 -16 -11
-32 -17 -38 -6 -7 -8 -2 -3 15 3 14 6 31 6 38 0 6 5 12 10 12 6 0 8 -11 4 -27z
m246 17 c0 -5 -4 -10 -10 -10 -5 0 -10 5 -10 10 0 6 5 10 10 10 6 0 10 -4 10
-10z m-506 -19 c10 -11 16 -31 14 -44 -2 -22 -5 -24 -19 -14 -18 14 -36 77
-21 77 5 0 17 -9 26 -19z m969 -24 c24 -59 22 -71 -17 -101 -44 -33 -50 -33
-42 4 4 23 1 33 -14 42 -26 16 -25 35 0 43 21 7 28 25 10 25 -5 0 -10 7 -10
15 0 10 10 15 28 15 22 0 30 -7 45 -43z m-489 25 c2 -4 -15 -20 -40 -35 -52
-32 -56 -28 -11 13 34 31 43 35 51 22z m583 -11 c10 -16 8 -22 -8 -37 -10 -9
-19 -13 -19 -8 0 5 -5 1 -11 -9 -13 -23 -29 -13 -29 19 0 16 4 23 11 18 8 -4
9 0 4 15 -5 17 -2 21 17 21 13 0 29 -9 35 -19z m1454 -4 c-13 -13 -26 -3 -16
12 3 6 11 8 17 5 6 -4 6 -10 -1 -17z m-1901 -1 c0 -7 -11 -25 -25 -40 -14 -15
-25 -31 -25 -37 0 -5 -4 -9 -10 -9 -5 0 -10 7 -10 15 0 8 5 15 10 15 6 0 10 5
10 10 0 15 31 60 41 60 5 0 9 -6 9 -14z m2014 -55 c-9 -11 -24 15 -23 42 l1
32 12 -35 c8 -19 12 -37 10 -39z m316 18 c0 -21 -3 -39 -7 -39 -27 1 -47 46
-31 73 15 28 38 8 38 -34z m-2385 31 c-3 -5 -11 -10 -16 -10 -6 0 -7 5 -4 10
3 6 11 10 16 10 6 0 7 -4 4 -10z m710 -11 c7 -22 -27 -69 -51 -69 -26 0 -24
32 3 60 35 34 40 35 48 9z m-1078 -14 c9 -25 -4 -29 -17 -6 -7 15 -7 21 0 21
6 0 13 -7 17 -15z m79 -13 c-18 -16 -18 -16 -6 6 6 13 14 21 18 18 3 -4 -2
-14 -12 -24z m2515 -25 l6 -42 2 37 c1 36 2 37 29 27 52 -19 62 -33 70 -103 5
-36 6 -66 4 -66 -14 0 -91 57 -92 68 0 6 -5 11 -12 10 -14 -4 -26 34 -27 86
-1 49 10 39 20 -17z m223 37 c28 -14 35 -24 40 -57 4 -22 5 -42 2 -44 -3 -3
-24 6 -48 19 -37 20 -43 28 -46 61 -4 42 2 44 52 21z m-1524 -25 c-10 -18 -23
-24 -44 -20 -5 1 -6 -5 -3 -14 4 -8 1 -15 -5 -15 -12 0 -68 -59 -68 -72 0 -4
-6 -8 -13 -8 -8 0 -20 -18 -27 -40 -14 -44 -30 -37 -30 12 0 76 51 138 140
169 53 18 64 15 50 -12z m-1420 -32 c0 -16 -3 -17 -15 -7 -8 7 -15 24 -15 39
1 25 1 25 15 7 8 -11 15 -29 15 -39z m430 48 c0 -3 -11 -27 -24 -53 -34 -64
-75 -109 -109 -118 -27 -6 -28 -5 -21 22 17 68 34 92 86 123 52 30 68 36 68
26z m205 -63 l-29 -24 -8 22 c-6 17 -11 20 -22 11 -10 -8 -16 -8 -26 3 -10 13
-6 19 21 35 l32 20 30 -21 30 -21 -28 -25z m395 32 c0 -31 -3 -36 -20 -31 -11
3 -18 1 -15 -3 7 -11 -23 -40 -41 -40 -9 0 -14 11 -14 30 0 17 4 30 8 30 5 0
22 11 38 25 38 33 44 32 44 -11z m1446 28 c11 -7 44 -65 44 -77 0 -3 -9 -5
-20 -5 -11 0 -20 -4 -20 -10 0 -23 -21 -7 -27 20 -3 17 -10 33 -14 36 -5 3 -9
14 -9 25 0 19 25 26 46 11z m-2366 -55 c0 -20 -22 -46 -35 -41 -20 8 -30 61
-14 80 11 14 15 13 31 -8 9 -13 18 -27 18 -31z m2584 11 c4 -24 3 -38 -4 -38
-5 0 -10 19 -10 42 0 49 5 47 14 -4z m-1554 -9 c0 -5 -7 -9 -15 -9 -8 0 -15
-4 -15 -10 0 -5 -4 -10 -10 -10 -5 0 -10 9 -10 21 0 11 5 17 10 14 6 -3 10 1
10 11 0 13 3 14 15 4 8 -7 15 -16 15 -21z m1419 18 c6 -8 14 -29 18 -48 6 -31
5 -32 -9 -18 -8 8 -23 29 -32 47 -14 26 -14 32 -2 32 7 0 19 -6 25 -13z
m-2089 -9 c-1 -14 -50 -54 -50 -40 0 9 38 52 45 52 3 0 5 -6 5 -12z m2410 -24
c8 -7 20 -13 25 -14 6 -1 29 -13 52 -28 44 -28 49 -39 55 -122 3 -37 7 -36
-61 -26 -14 2 -29 10 -35 18 -6 7 -25 24 -42 35 -29 21 -31 26 -33 94 -2 74 0
76 39 43z m-2342 -11 c-2 -10 -11 -19 -21 -21 -16 -3 -17 -1 -7 17 13 25 33
28 28 4z m-578 -3 c0 -5 -4 -10 -10 -10 -5 0 -10 5 -10 10 0 6 5 10 10 10 6 0
10 -4 10 -10z m824 -9 c10 -11 25 -17 33 -14 10 4 7 -4 -8 -20 -12 -15 -24
-27 -26 -27 -5 0 -33 59 -33 70 0 16 15 12 34 -9z m139 -8 c4 -23 -1 -34 -31
-60 -38 -33 -75 -42 -88 -21 -5 7 13 30 47 60 30 26 57 48 60 48 4 0 9 -12 12
-27z m239 21 c3 -3 0 -17 -7 -32 -7 -15 -16 -51 -20 -79 -6 -48 -8 -52 -26
-42 -17 9 -19 19 -17 67 2 43 7 57 18 57 8 0 18 8 22 18 7 17 20 22 30 11z
m-899 -51 c-21 -65 -29 -70 -42 -31 -11 30 -10 35 14 56 39 33 45 27 28 -25z
m203 21 c-30 -21 -44 -16 -17 7 13 11 27 17 30 13 3 -3 -3 -12 -13 -20z m560
-11 c-2 -21 -9 -39 -15 -41 -6 -2 -18 -10 -25 -18 -24 -23 -38 -16 -34 17 2
22 12 35 33 47 17 9 32 20 33 25 8 18 12 4 8 -30z m-1036 11 c0 -8 5 -12 10
-9 11 7 13 -27 4 -62 -9 -34 -26 -16 -19 19 5 21 4 28 -4 24 -7 -5 -11 2 -11
18 0 14 5 26 10 26 6 0 10 -7 10 -16z m660 5 c0 -7 12 -23 28 -38 l27 -26 -24
-3 c-19 -3 -21 -6 -10 -13 11 -7 10 -9 -6 -9 -11 0 -29 -3 -41 -6 -17 -4 -22
1 -32 32 -10 34 -9 39 10 56 24 20 48 24 48 7z m1980 -20 c0 -17 -4 -28 -10
-24 -5 3 -10 17 -10 31 0 13 5 24 10 24 6 0 10 -14 10 -31z m-2500 12 c0 -6
-4 -13 -10 -16 -5 -3 -10 1 -10 9 0 9 5 16 10 16 6 0 10 -4 10 -9z m2378 -8
c0 -10 3 -26 7 -35 10 -26 -12 -23 -25 3 -12 22 -7 49 9 49 5 0 9 -8 9 -17z
m236 -34 c11 2 60 -27 90 -53 16 -14 32 -26 35 -26 18 -1 50 -40 45 -54 -9
-22 -29 -20 -57 7 -14 12 -59 54 -101 92 -42 39 -76 74 -76 79 0 6 13 -3 29
-18 16 -15 32 -27 35 -27z m-2660 -44 c13 -28 23 -51 21 -53 -2 -2 -16 3 -33
12 -31 16 -42 40 -42 91 0 26 2 28 15 15 8 -9 25 -38 39 -65z m446 71 c0 -2
-9 -6 -20 -9 -11 -3 -20 -1 -20 4 0 5 9 9 20 9 11 0 20 -2 20 -4z m214 -12
c11 -28 6 -54 -9 -54 -10 0 -15 11 -15 35 0 36 13 47 24 19z m-284 1 c0 -28
-79 -110 -99 -103 -19 6 23 80 54 93 33 15 45 17 45 10z m-250 -50 c0 -5 -5
-3 -10 5 -5 8 -10 20 -10 25 0 6 5 3 10 -5 5 -8 10 -19 10 -25z m345 15 c0
-11 -84 -44 -92 -36 -6 6 72 55 82 52 6 -1 10 -9 10 -16z m2175 -27 c0 -10 -6
-10 -25 -1 -14 6 -25 20 -25 30 0 18 1 18 25 1 13 -10 25 -24 25 -30z m325 -4
c19 -57 12 -75 -16 -40 -19 24 -27 91 -10 91 5 0 17 -23 26 -51z m-2125 26 c0
-9 -9 -15 -21 -15 -18 0 -19 2 -9 15 7 8 16 15 21 15 5 0 9 -7 9 -15z m1550
11 c0 -2 3 -12 7 -22 4 -12 3 -15 -5 -10 -7 4 -12 2 -12 -4 0 -6 11 -15 24
-21 22 -10 46 -47 46 -70 0 -17 -61 31 -69 55 -20 53 -22 76 -6 76 8 0 15 -2
15 -4z m696 -90 c10 -29 10 -37 -2 -47 -8 -6 -14 -17 -14 -24 0 -7 -8 -12 -17
-10 -10 2 -20 4 -23 4 -5 1 -23 52 -51 143 l-8 28 52 -30 c38 -22 55 -38 63
-64z m-2986 17 c0 -7 -6 -13 -14 -13 -15 0 -30 56 -19 73 7 11 32 -35 33 -60z
m850 52 c0 -9 -9 -15 -21 -15 -18 0 -19 2 -9 15 7 8 16 15 21 15 5 0 9 -7 9
-15z m1553 -25 c14 -22 16 -31 7 -25 -29 16 -50 38 -50 52 0 23 19 11 43 -27z
m-2250 10 c-5 -20 -15 -25 -26 -13 -5 4 18 30 30 33 0 0 -1 -9 -4 -20z m207
-10 c-20 -13 -33 -13 -25 0 3 6 14 10 23 10 15 0 15 -2 2 -10z m379 -9 c-2
-14 -79 -72 -89 -66 -16 10 -12 43 8 63 13 13 29 18 50 14 18 -2 32 -7 31 -11z
m-254 -26 c-36 -31 -41 -33 -52 -18 -27 36 -15 44 72 51 15 2 11 -6 -20 -33z
m100 25 c3 -5 1 -10 -5 -10 -6 0 -9 -4 -6 -9 3 -5 -1 -14 -8 -20 -11 -10 -16
-8 -21 10 -9 28 25 53 40 29z m266 -45 c1 -30 1 -67 2 -82 0 -25 -3 -28 -28
-26 -52 4 -55 8 -55 81 0 38 3 72 7 75 3 4 21 7 40 7 l33 0 1 -55z m1724 45
c3 -5 1 -10 -4 -10 -6 0 -11 5 -11 10 0 6 2 10 4 10 3 0 8 -4 11 -10z m-2275
-10 c-37 -25 -50 -31 -50 -20 0 6 10 15 23 20 30 12 45 12 27 0z m2160 -23 c0
-18 -2 -19 -10 -7 -13 20 -13 43 0 35 6 -3 10 -16 10 -28z m-2650 -2 c0 -14
-4 -25 -10 -25 -5 0 -10 11 -10 25 0 14 5 25 10 25 6 0 10 -11 10 -25z m320
12 c0 -8 -11 -19 -25 -25 -28 -13 -30 -10 -15 19 12 22 40 26 40 6z m279 -23
c12 -33 11 -38 -7 -56 -18 -18 -24 -19 -76 -8 -32 6 -63 9 -71 6 -7 -2 -19 1
-25 9 -13 15 -14 14 69 56 76 39 94 38 110 -7z m-572 -11 c-3 -10 -5 -4 -5 12
0 17 2 24 5 18 2 -7 2 -21 0 -30z m80 5 c7 -6 13 -18 13 -27 0 -9 5 -22 12
-29 19 -19 -6 -15 -45 8 -21 13 -37 31 -40 46 -4 23 -2 25 22 19 14 -4 32 -11
38 -17z m611 -3 c-1 -14 -7 -24 -13 -22 -5 2 -18 -10 -28 -26 -15 -24 -21 -27
-28 -16 -13 21 -12 26 24 58 39 37 47 39 45 6z m-318 5 c0 -5 -4 -10 -10 -10
-5 0 -10 5 -10 10 0 6 5 10 10 10 6 0 10 -4 10 -10z m400 -27 c0 -7 -6 -13
-14 -13 -8 0 -13 -7 -12 -16 0 -9 -5 -19 -11 -21 -19 -7 -16 47 4 69 13 14 18
16 25 6 4 -7 8 -19 8 -25z m144 -32 c4 -31 2 -41 -10 -41 -8 0 -14 7 -14 15 0
8 -4 15 -10 15 -5 0 -10 -7 -10 -15 0 -20 -46 -20 -54 1 -9 23 -7 34 5 34 6 0
22 13 35 30 22 25 28 28 39 16 8 -7 16 -32 19 -55z m1825 29 c31 -25 48 -45
45 -54 -8 -21 -124 49 -124 75 0 29 23 23 79 -21z m-171 7 c5 -24 -15 -21 -21
4 -3 13 -1 19 6 16 7 -2 13 -11 15 -20z m-2222 -3 c3 -10 -64 -69 -71 -62 -2
2 8 21 22 41 25 35 44 43 49 21z m744 -26 c0 -10 -4 -18 -10 -18 -5 0 -10 15
-10 33 0 24 3 28 10 17 5 -8 10 -23 10 -32z m1954 18 c12 16 14 15 20 -11 8
-32 -3 -49 -27 -40 -20 8 -27 28 -19 57 l7 23 3 -23 c3 -22 5 -22 16 -6z
m-253 -3 c13 -16 12 -17 -3 -4 -10 7 -18 15 -18 17 0 8 8 3 21 -13z m163 -7
c17 -14 26 -29 21 -36 -5 -8 -11 -8 -17 -2 -15 15 -38 3 -30 -16 5 -15 4 -15
-14 -2 -10 8 -21 15 -23 17 -5 3 23 63 29 63 3 -1 18 -11 34 -24z m-463 -13
c13 -16 12 -17 -3 -4 -17 13 -22 21 -14 21 2 0 10 -8 17 -17z m-2273 -37 c-5
-33 -23 -24 -26 13 -3 31 -2 33 13 21 9 -7 15 -23 13 -34z m3222 34 c0 -5 -4
-10 -10 -10 -5 0 -10 5 -10 10 0 6 5 10 10 10 6 0 10 -4 10 -10z m-2738 -42
c-11 -11 -52 -2 -52 11 0 4 10 13 23 18 17 8 24 7 31 -4 5 -9 4 -19 -2 -25z
m1881 12 c3 -11 3 -20 1 -20 -2 0 -8 9 -14 20 -6 11 -7 20 -2 20 6 0 12 -9 15
-20z m47 9 c0 -7 6 -17 14 -23 16 -13 33 -121 16 -111 -5 3 -10 28 -10 56 0
27 -3 49 -8 49 -4 0 -6 -21 -4 -47 l3 -48 -21 24 c-19 23 -28 89 -13 104 10
11 23 8 23 -4z m-2300 -2 c0 -2 -10 -12 -22 -23 l-23 -19 19 23 c18 21 26 27
26 19z m2560 -22 c13 -14 19 -25 14 -25 -11 1 -54 36 -54 44 0 13 18 5 40 -19z
m460 15 c0 -5 -11 -10 -25 -10 -14 0 -25 5 -25 10 0 6 11 10 25 10 14 0 25 -4
25 -10z m-2863 -6 c19 -5 21 -10 12 -25 -5 -10 -18 -19 -29 -19 -10 0 -21 -4
-24 -9 -7 -11 -126 -54 -133 -48 -2 3 0 13 6 24 6 10 15 30 21 46 8 23 15 27
45 27 22 0 38 -6 41 -15 4 -8 10 -15 15 -15 6 0 5 9 -1 20 -9 17 -8 20 7 20
10 0 28 -3 40 -6z m613 -25 c0 -20 -15 -26 -25 -9 -9 15 3 43 15 35 5 -3 10
-15 10 -26z m1446 16 c20 -19 4 -20 -22 0 -12 9 -14 14 -6 15 7 0 20 -7 28
-15z m183 1 c58 -16 92 -41 85 -61 -3 -7 -13 -11 -23 -8 -13 3 -20 -3 -25 -22
-4 -14 -11 -25 -17 -23 -8 3 -83 128 -76 128 1 0 26 -7 56 -14z m-2709 -17 c0
-5 -4 -9 -10 -9 -5 0 -10 7 -10 16 0 8 5 12 10 9 6 -3 10 -10 10 -16z m89 12
c12 -8 12 -13 -3 -36 -16 -24 -19 -25 -39 -12 -12 8 -23 24 -25 36 -3 17 2 21
25 21 15 0 34 -4 42 -9z m451 -11 c0 -5 -2 -10 -4 -10 -3 0 -8 5 -11 10 -3 6
-1 10 4 10 6 0 11 -4 11 -10z m-589 -19 c0 -3 2 -15 4 -25 2 -11 5 -49 6 -85
2 -49 -1 -66 -12 -69 -17 -6 -87 -36 -154 -67 -27 -12 -53 -21 -57 -18 -5 2
-8 20 -8 40 0 78 156 255 208 236 6 -3 12 -8 13 -12z m989 9 c-20 -13 -33 -13
-25 0 3 6 14 10 23 10 15 0 15 -2 2 -10z m55 -10 c3 -6 -4 -10 -17 -10 -18 0
-20 2 -8 10 19 12 18 12 25 0z m-982 -92 c7 -52 0 -67 -30 -68 -14 0 -19 131
-6 144 13 13 30 -23 36 -76z m135 42 c26 -47 21 -50 -25 -14 -27 21 -32 29
-22 40 17 21 22 18 47 -26z m360 15 c5 -24 -21 -40 -29 -17 -8 22 0 44 15 39
6 -2 13 -12 14 -22z m2172 -24 c8 -28 7 -31 -5 -21 -8 7 -15 24 -15 38 0 32 8
25 20 -17z m-1696 23 c20 -8 21 -34 2 -34 -8 0 -27 5 -43 11 -26 10 -27 12 -8
19 26 11 30 11 49 4z m-924 -17 c0 -7 -6 -22 -14 -32 -12 -17 -14 -16 -18 13
-4 26 -1 32 14 32 10 0 18 -6 18 -13z m1028 1 c-6 -18 -28 -21 -28 -4 0 9 7
16 16 16 9 0 14 -5 12 -12z m-680 -15 c-22 -22 -90 -45 -85 -29 4 13 66 46 87
46 12 0 11 -3 -2 -17z m277 7 c-3 -5 -11 -10 -16 -10 -6 0 -7 5 -4 10 3 6 11
10 16 10 6 0 7 -4 4 -10z m-510 -62 c19 -18 18 -18 -48 -18 -72 0 -76 4 -57
55 l10 27 38 -23 c20 -12 46 -30 57 -41z m290 51 c10 -15 -1 -23 -20 -15 -9 3
-13 10 -10 16 8 13 22 13 30 -1z m-215 -9 c0 -5 -4 -10 -10 -10 -5 0 -10 5
-10 10 0 6 5 10 10 10 6 0 10 -4 10 -10z m340 -11 c0 -5 -7 -9 -15 -9 -15 0
-20 12 -9 23 8 8 24 -1 24 -14z m210 11 c0 -5 -5 -10 -11 -10 -5 0 -7 5 -4 10
3 6 8 10 11 10 2 0 4 -4 4 -10z m91 1 c6 10 9 6 9 -13 0 -18 -5 -28 -14 -28
-20 0 -29 17 -21 38 6 13 9 14 12 3 5 -11 7 -11 14 0z m-191 -27 c0 -8 -5 -12
-10 -9 -6 4 -8 11 -5 16 9 14 15 11 15 -7z m278 10 c12 -4 22 -11 22 -16 0 -5
-4 -6 -10 -3 -5 3 -10 1 -10 -4 0 -18 -19 -12 -30 9 -11 21 -8 23 28 14z
m3062 -16 c0 -4 -15 -8 -32 -8 -24 0 -29 3 -19 9 17 11 51 10 51 -1z m-3696
-22 c-5 -14 -9 -15 -15 -5 -5 8 -3 17 4 21 15 9 19 4 11 -16z m184 2 c-3 -7
-18 -14 -34 -15 -27 -2 -28 -1 -10 13 24 17 49 18 44 2z m72 -23 c0 -16 -6
-25 -15 -25 -18 0 -20 21 -3 38 17 17 18 16 18 -13z m498 13 c15 -15 16 -48 1
-48 -17 0 -38 32 -32 47 6 16 16 16 31 1z m-658 -7 c0 -12 -39 -25 -48 -16 -7
7 17 25 36 25 6 0 12 -4 12 -9z m-240 -30 c5 -11 10 -32 10 -47 0 -26 -1 -26
-18 -11 -10 10 -22 17 -27 17 -10 0 -115 51 -115 56 0 2 31 4 70 4 58 0 71 -3
80 -19z m-200 -19 c0 -5 -7 -17 -15 -28 -8 -10 -15 -28 -15 -39 0 -26 -18 -45
-42 -45 -22 0 -22 4 -2 55 8 22 25 46 37 52 28 14 37 15 37 5z m30 -28 c0 -42
-15 -74 -35 -74 -19 0 -19 20 1 70 20 50 34 51 34 4z m34 -6 c-9 -14 -24 2
-24 25 1 21 1 21 15 3 8 -10 12 -23 9 -28z m334 26 c-9 -9 -21 -13 -27 -10
-20 13 -11 26 16 26 25 0 26 -1 11 -16z m228 -21 c-11 -11 -19 6 -11 24 8 17
8 17 12 0 3 -10 2 -21 -1 -24z m-531 17 c3 -5 1 -10 -4 -10 -6 0 -11 5 -11 10
0 6 2 10 4 10 3 0 8 -4 11 -10z m153 -26 c-10 -10 -28 6 -28 24 0 15 1 15 17
-1 9 -9 14 -19 11 -23z m222 22 c0 -2 -7 -7 -16 -10 -8 -3 -12 -2 -9 4 6 10
25 14 25 6z m-301 -36 c8 -3 17 -12 19 -18 4 -13 -52 1 -74 19 -21 17 -6 30
19 17 12 -6 28 -14 36 -18z m-311 -9 c-42 -37 -31 -51 11 -15 30 25 58 27 33
2 -7 -7 -12 -20 -12 -30 0 -10 -8 -21 -17 -25 -10 -3 -31 -15 -46 -26 -35 -24
-44 -17 -22 17 20 29 14 34 -10 10 -19 -19 -31 -11 -40 26 -6 24 -2 27 52 47
79 29 89 28 51 -6z m682 -2 c0 -5 -3 -8 -7 -8 -20 3 -27 -2 -13 -11 22 -14 5
-23 -25 -13 l-26 8 21 28 c18 22 25 25 36 16 8 -6 14 -15 14 -20z m-442 -12
c2 -10 -3 -17 -12 -17 -10 0 -16 9 -16 21 0 24 23 21 28 -4z m3490 -408 c1 -8
-2 -28 -7 -43 -11 -26 -12 -27 -91 -25 -44 1 -80 4 -80 6 0 2 7 17 15 33 9 17
12 31 8 32 -13 2 100 15 127 14 14 -1 26 -8 28 -17z m439 15 c-3 -3 -50 -12
-104 -19 -54 -8 -125 -18 -158 -23 -33 -6 -63 -8 -67 -5 -10 5 -10 37 -1 46 3
4 81 7 171 7 91 0 163 -3 159 -6z m-712 -24 c3 -5 0 -10 -7 -11 -7 0 -3 -4 9
-9 14 -6 21 -15 17 -24 -4 -10 2 -16 18 -19 13 -2 5 -3 -17 -1 -29 3 -36 2
-25 -6 12 -8 10 -10 -10 -11 -57 -2 -126 -9 -137 -14 -16 -5 -43 44 -39 71 2
16 12 20 57 22 29 2 51 1 48 -2 -2 -3 -23 -6 -46 -7 -23 -2 -40 -6 -38 -9 4
-7 35 -5 104 6 26 4 31 8 20 15 -10 6 -7 9 13 9 15 0 30 -4 33 -10z m-805
-201 c0 -6 -24 -19 -36 -19 -2 0 -4 6 -4 14 0 9 9 14 20 13 11 -1 20 -4 20 -8z
m-37 -119 c23 -79 39 -215 35 -288 l-3 -63 -33 31 c-39 35 -69 38 -106 9 -14
-11 -26 -18 -26 -15 0 3 0 9 0 14 0 4 5 7 12 7 6 0 13 7 15 15 4 13 3 13 -6 0
-6 -8 -11 -11 -11 -6 0 5 -6 3 -14 -4 -8 -6 -13 -17 -10 -25 3 -7 1 -16 -5
-20 -20 -12 -12 31 9 50 57 52 99 192 100 340 1 56 2 58 14 35 8 -14 21 -50
29 -80z m-2753 -50 c0 -10 -7 -21 -16 -24 -23 -9 -26 -3 -14 28 11 29 30 27
30 -4z m1879 -204 c27 -25 27 -39 -1 -30 -21 6 -21 4 7 -32 17 -22 28 -48 27
-63 -1 -20 0 -23 8 -11 6 10 10 11 10 3 0 -7 6 -13 14 -13 7 0 19 -6 26 -14 6
-8 17 -13 24 -10 7 3 20 -12 31 -35 13 -30 27 -43 51 -51 19 -7 34 -15 34 -20
0 -5 17 -12 38 -16 20 -4 45 -13 54 -22 17 -14 17 -16 0 -41 -10 -14 -31 -52
-47 -83 -27 -56 -53 -80 -40 -37 5 15 4 19 -4 15 -6 -4 -11 -3 -11 1 0 5 -16
26 -35 48 -19 22 -35 45 -35 52 0 7 -8 17 -17 22 -10 6 -14 11 -10 11 4 0 3 9
-3 20 -6 11 -16 17 -22 14 -8 -5 -9 -1 -5 10 4 10 1 19 -8 22 -8 4 -15 10 -15
15 0 4 -11 20 -24 34 -13 14 -26 39 -30 56 -3 17 -10 28 -15 25 -5 -4 -17 15
-27 41 -10 27 -21 53 -25 59 -5 6 -3 16 4 24 6 7 7 10 1 7 -11 -6 -54 72 -54
99 0 9 17 -6 39 -33 21 -26 48 -57 60 -67z m828 -186 c39 0 58 -40 60 -125 0
-44 -2 -93 -7 -110 -5 -16 -11 -43 -14 -60 l-6 -30 16 25 c11 17 13 19 9 5 -4
-11 -10 -28 -12 -37 -3 -10 -10 -15 -16 -11 -6 4 -8 -4 -5 -22 6 -31 -25 -114
-36 -96 -4 6 -4 16 -1 21 3 6 -2 10 -13 10 -10 0 -34 17 -53 38 -19 20 -58 63
-87 95 -28 33 -49 64 -46 69 4 6 3 8 -3 5 -12 -7 -90 70 -80 79 4 4 7 2 7 -4
0 -6 7 -9 16 -5 12 4 12 8 4 13 -9 6 -4 15 15 31 15 13 35 31 44 39 9 9 34 29
56 45 22 16 42 32 45 36 10 14 46 15 67 2 12 -7 30 -13 40 -13z m-2745 -72
c-7 -7 -12 -8 -12 -2 0 14 12 26 19 19 2 -3 -1 -11 -7 -17z m2268 -48 c0 -5
-5 -10 -11 -10 -5 0 -7 5 -4 10 3 6 8 10 11 10 2 0 4 -4 4 -10z m-2245 -114
c-18 -27 -35 -34 -35 -15 0 11 42 50 48 44 2 -2 -4 -15 -13 -29z m2705 -265
l-25 -7 23 -8 c20 -7 22 -14 22 -75 0 -38 6 -87 14 -109 8 -22 15 -59 17 -83
1 -24 6 -49 10 -54 5 -6 8 -20 8 -30 -1 -11 2 -35 4 -52 7 -42 -11 -54 -19
-13 -4 17 -9 29 -11 26 -3 -3 -19 23 -36 57 -17 34 -34 64 -39 65 -4 2 -8 7
-8 12 0 4 -16 31 -35 59 -55 83 -57 151 -4 151 11 0 19 5 19 10 0 6 -5 10 -12
10 -9 0 -9 3 -1 11 6 6 9 18 6 25 -4 11 6 14 43 13 38 -1 43 -3 24 -8z m1610
-104 c0 -47 -10 -52 -32 -17 -24 40 -23 50 7 50 22 0 25 -4 25 -33z m112 9 c4
-6 8 -20 8 -31 0 -16 -8 -20 -42 -22 -50 -3 -68 10 -68 49 0 29 0 29 48 22 26
-4 50 -12 54 -18z m-4365 -173 c0 -7 -11 -13 -24 -13 -13 0 -22 4 -19 9 4 5 0
11 -6 13 -7 3 1 5 18 5 19 0 31 -5 31 -14z m2743 -235 c0 -19 -2 -20 -10 -8
-13 19 -13 30 0 30 6 0 10 -10 10 -22z m-159 -101 c-10 -9 -11 -8 -5 6 3 10 9
15 12 12 3 -3 0 -11 -7 -18z"/>
<path d="M4224 4093 c4 -6 1 -13 -6 -15 -6 -2 4 -10 23 -18 19 -8 39 -21 46
-30 6 -8 15 -12 18 -8 4 4 21 0 37 -8 17 -9 28 -12 25 -7 -4 5 -24 18 -47 28
-22 10 -40 22 -40 27 0 5 -5 6 -10 3 -6 -4 -20 4 -31 17 -11 13 -18 18 -15 11z"/>
<path d="M4210 3992 c0 -12 5 -22 10 -22 6 0 20 -16 31 -35 12 -19 25 -32 30
-29 5 3 12 -3 16 -13 13 -35 132 -189 133 -172 0 3 -11 19 -25 35 -25 29 -33
50 -15 39 5 -3 7 0 4 9 -3 8 -13 17 -21 20 -14 6 -14 4 -2 -11 11 -16 11 -16
-1 -5 -8 7 -15 19 -15 27 0 8 -25 40 -56 72 -30 32 -63 69 -72 83 -17 24 -17
24 -17 2z"/>
<path d="M4396 3985 c4 -8 11 -15 16 -15 6 0 5 6 -2 15 -7 8 -14 15 -16 15 -2
0 -1 -7 2 -15z"/>
<path d="M4430 3966 c0 -2 7 -7 16 -10 8 -3 12 -2 9 4 -6 10 -25 14 -25 6z"/>
<path d="M4315 3929 c5 -8 27 -37 50 -64 22 -28 48 -61 58 -75 l18 -25 -12 25
c-14 30 -95 136 -111 146 -7 5 -8 3 -3 -7z"/>
<path d="M4250 3871 c0 -6 4 -13 10 -16 6 -3 7 1 4 9 -7 18 -14 21 -14 7z"/>
<path d="M4271 3835 c0 -5 8 -26 19 -45 11 -19 19 -30 19 -25 0 6 -8 26 -19
45 -11 19 -19 31 -19 25z"/>
<path d="M4310 3741 c0 -5 5 -13 10 -16 6 -3 10 -2 10 4 0 5 -4 13 -10 16 -5
3 -10 2 -10 -4z"/>
<path d="M4346 3737 c3 -10 9 -15 12 -12 3 3 0 11 -7 18 -10 9 -11 8 -5 -6z"/>
<path d="M4466 3727 c3 -10 9 -15 12 -12 3 3 0 11 -7 18 -10 9 -11 8 -5 -6z"/>
<path d="M4090 3529 c0 -5 4 -9 8 -9 19 0 81 -71 87 -100 4 -19 10 -28 14 -21
8 12 71 -67 71 -88 0 -6 16 -31 35 -57 19 -25 35 -39 35 -30 0 8 -5 18 -10 21
-12 7 -55 85 -55 100 0 6 -3 10 -7 10 -11 0 -87 118 -82 127 3 4 1 8 -5 8 -5
0 -13 10 -16 21 -6 17 -9 19 -16 8 -5 -8 -9 -9 -9 -3 0 7 -11 14 -25 16 -14 3
-25 1 -25 -3z"/>
<path d="M4130 3456 c0 -2 7 -7 16 -10 8 -3 12 -2 9 4 -6 10 -25 14 -25 6z"/>
<path d="M4080 3408 c0 -9 5 -20 10 -23 6 -4 8 -10 5 -15 -3 -4 2 -10 10 -14
11 -4 14 1 13 19 -1 13 -6 22 -10 19 -4 -2 -11 4 -17 13 -9 16 -10 16 -11 1z"/>
<path d="M4166 3407 c3 -10 9 -15 12 -12 3 3 0 11 -7 18 -10 9 -11 8 -5 -6z"/>
<path d="M4140 3372 c0 -12 39 -60 40 -49 0 5 -9 20 -20 34 -11 14 -20 21 -20
15z"/>
<path d="M4206 3347 c3 -10 9 -15 12 -12 3 3 0 11 -7 18 -10 9 -11 8 -5 -6z"/>
<path d="M4160 3301 c0 -6 4 -13 10 -16 6 -3 7 1 4 9 -7 18 -14 21 -14 7z"/>
<path d="M4190 3292 c6 -13 14 -21 18 -18 3 4 -2 14 -12 24 -18 16 -18 16 -6
-6z"/>
<path d="M4209 3243 c-12 -16 -12 -17 2 -6 9 7 20 9 24 5 5 -4 5 -1 1 6 -9 16
-11 15 -27 -5z"/>
<path d="M4250 3161 c0 -5 5 -13 10 -16 6 -3 10 -2 10 4 0 5 -4 13 -10 16 -5
3 -10 2 -10 -4z"/>
<path d="M1120 3545 c-7 -9 -8 -15 -2 -15 5 0 12 7 16 15 3 8 4 15 2 15 -2 0
-9 -7 -16 -15z"/>
<path d="M4067 3669 c7 -7 15 -10 18 -7 3 3 -2 9 -12 12 -14 6 -15 5 -6 -5z"/>
<path d="M4068 3643 c7 -3 16 -2 19 1 4 3 -2 6 -13 5 -11 0 -14 -3 -6 -6z"/>
<path d="M3462 3375 c0 -16 2 -22 5 -12 2 9 2 23 0 30 -3 6 -5 -1 -5 -18z"/>
<path d="M3917 3273 c-4 -3 -7 -11 -7 -17 0 -6 5 -5 12 2 6 6 9 14 7 17 -3 3
-9 2 -12 -2z"/>
<path d="M3886 3204 c-4 -9 -4 -19 -1 -22 2 -3 7 3 11 12 4 9 4 19 1 22 -2 3
-7 -3 -11 -12z"/>
<path d="M3916 3113 c-6 -14 -5 -15 5 -6 7 7 10 15 7 18 -3 3 -9 -2 -12 -12z"/>
<path d="M3197 3541 c-4 -17 -3 -21 5 -13 5 5 8 16 6 23 -3 8 -7 3 -11 -10z"/>
<path d="M3872 3430 c0 -14 2 -19 5 -12 2 6 2 18 0 25 -3 6 -5 1 -5 -13z"/>
<path d="M3192 3040 c0 -14 2 -19 5 -12 2 6 2 18 0 25 -3 6 -5 1 -5 -13z"/>
<path d="M3250 2840 c0 -5 5 -10 11 -10 5 0 7 5 4 10 -3 6 -8 10 -11 10 -2 0
-4 -4 -4 -10z"/>
<path d="M3628 2023 c7 -3 16 -2 19 1 4 3 -2 6 -13 5 -11 0 -14 -3 -6 -6z"/>
<path d="M2530 1165 c15 -18 5 -36 -18 -29 -14 5 -14 4 -2 -4 8 -6 18 -8 24
-5 5 4 7 -1 3 -10 -3 -9 -1 -19 6 -23 7 -4 9 -4 5 1 -4 4 -3 14 2 20 12 14 -6
65 -23 65 -5 0 -4 -7 3 -15z"/>
<path d="M640 4515 c46 -47 86 -83 89 -80 2 3 -11 21 -30 41 -19 20 -53 56
-76 80 -23 24 -48 44 -54 44 -6 0 26 -38 71 -85z"/>
<path d="M1024 4558 l-19 -23 23 19 c21 18 27 26 19 26 -2 0 -12 -10 -23 -22z"/>
<path d="M740 4422 c0 -12 19 -26 26 -19 2 2 -2 10 -11 17 -9 8 -15 8 -15 2z"/>
<path d="M2390 4125 c-20 -24 -6 -28 15 -5 10 11 13 20 8 20 -6 0 -16 -7 -23
-15z"/>
<path d="M770 4060 c-12 -8 -10 -10 8 -10 13 0 20 4 17 10 -7 12 -6 12 -25 0z"/>
<path d="M980 4046 c0 -2 7 -7 16 -10 8 -3 12 -2 9 4 -6 10 -25 14 -25 6z"/>
<path d="M1016 4007 c3 -10 9 -15 12 -12 3 3 0 11 -7 18 -10 9 -11 8 -5 -6z"/>
<path d="M2092 4004 c-12 -8 -22 -21 -22 -27 0 -7 7 -4 14 6 7 9 18 17 24 17
6 0 14 5 17 10 9 15 -8 12 -33 -6z"/>
<path d="M760 3920 c0 -5 5 -10 11 -10 5 0 7 5 4 10 -3 6 -8 10 -11 10 -2 0
-4 -4 -4 -10z"/>
<path d="M1845 3839 c-4 -6 -5 -12 -2 -15 2 -3 7 2 10 11 7 17 1 20 -8 4z"/>
<path d="M1976 3834 c-9 -24 -7 -28 9 -14 17 14 20 30 6 30 -5 0 -12 -7 -15
-16z"/>
<path d="M1821 3787 c-15 -39 -14 -45 5 -19 8 12 13 28 11 35 -3 6 -10 -1 -16
-16z"/>
<path d="M1795 3729 c-26 -74 -37 -108 -40 -130 -2 -14 -13 -42 -24 -63 -33
-58 -9 -41 34 26 22 34 45 63 52 65 6 2 19 -11 29 -29 9 -18 20 -35 24 -38 4
-3 15 -21 25 -40 10 -19 20 -29 23 -22 4 14 -77 142 -90 142 -11 0 9 39 36 68
16 19 17 22 3 17 -9 -4 -26 -22 -38 -41 -11 -19 -24 -34 -29 -34 -5 0 -12 -9
-15 -21 -4 -11 -9 -18 -12 -15 -3 2 5 30 16 62 12 31 19 59 17 62 -3 3 -8 -1
-11 -9z"/>
<path d="M1205 3640 c3 -5 8 -10 11 -10 2 0 4 5 4 10 0 6 -5 10 -11 10 -5 0
-7 -4 -4 -10z"/>
<path d="M2336 3605 c-9 -13 -16 -41 -15 -62 l1 -38 13 48 c7 26 19 54 25 62
7 9 8 15 2 15 -5 0 -17 -11 -26 -25z"/>
<path d="M1718 3593 c-18 -23 -48 -71 -48 -78 0 -9 22 15 49 53 25 35 24 54
-1 25z"/>
<path d="M2311 3484 c0 -11 3 -14 6 -6 3 7 2 16 -1 19 -3 4 -6 -2 -5 -13z"/>
<path d="M1689 3473 c-13 -16 -12 -17 4 -4 9 7 17 15 17 17 0 8 -8 3 -21 -13z"/>
<path d="M1547 3313 c-4 -3 -7 -13 -7 -21 0 -12 3 -12 15 -2 8 7 15 16 15 21
0 11 -14 12 -23 2z"/>
</g>
</svg>
